<?xml version="1.0" encoding="UTF-8"?>
<svg width="202px" height="40px" viewBox="0 0 202 40" version="1.1" xmlns="http://www.w3.org/2000/svg" xmlns:xlink="http://www.w3.org/1999/xlink">
    <!-- Generator: Sketch 50.2 (55047) - http://www.bohemiancoding.com/sketch -->
    <title>Button / Pinterest</title>
    <desc>Created with Sketch.</desc>
    <defs>
        <polygon id="path-1" points="0 0.00157377049 23.9985049 0.00157377049 23.9985049 23.9999705 0 23.9999705"></polygon>
    </defs>
    <g id="Share-&amp;-Embed" stroke="none" stroke-width="1" fill="none" fill-rule="evenodd">
        <g id="D---Share-Social---Badge" transform="translate(-298.000000, -433.000000)">
            <g id="Button-/-Pinterest" transform="translate(298.000000, 433.000000)">
                <g id="Group-23" transform="translate(51.000000, 8.000000)">
                    <path d="M43.3774918,8.56924918 L46.4386721,8.56924918 L46.4386721,9.93410164 L46.4970984,9.93410164 C47.2380492,8.86167541 48.1934262,8.27682295 49.5778525,8.27682295 C51.7615574,8.27682295 53.0484098,9.83662623 53.0484098,12.0593803 L53.0484098,18.5521672 L49.8702787,18.5521672 L49.8702787,12.7028557 C49.8702787,11.6499049 49.3438525,10.9284295 48.3104754,10.9284295 C47.257623,10.9284295 46.555623,11.8059049 46.555623,13.0342328 L46.555623,18.5521672 L43.3774918,18.5521672 L43.3774918,8.56924918 Z" id="Fill-2" fill="#FEFEFE"></path>
                    <path d="M43.0311148,5.89842295 C43.0311148,4.84547213 42.177541,3.99199672 41.1246885,3.99199672 C40.0718361,3.99199672 39.2182623,4.84547213 39.2182623,5.89842295 C39.2182623,6.95127541 40.0718361,7.80475082 41.1246885,7.80475082 C42.177541,7.80475082 43.0311148,6.95127541 43.0311148,5.89842295" id="Fill-4" fill="#FEFEFE"></path>
                    <path d="M75.4008984,8.4250623 C75.3102098,8.41689836 75.2062426,8.41325902 75.0845705,8.41325902 C73.875718,8.41325902 73.0568656,8.93968525 72.3548656,10.1290623 L72.2964393,10.1290623 L72.2964393,8.56925902 L69.2547344,8.56925902 L69.2547344,18.5520787 L72.4328656,18.5520787 L72.4328656,14.0676197 C72.4328656,11.9897508 73.5835869,11.0268984 75.4008984,11.1948984 L75.4008984,8.4250623 Z" id="Fill-6" fill="#FEFEFE"></path>
                    <path d="M90.9973082,12.2542623 C89.7299311,12.0203607 88.5990787,11.9228852 88.5990787,11.2209836 C88.5990787,10.5969836 89.2036033,10.3045574 89.9834066,10.3045574 C90.8607836,10.3045574 91.4653082,10.5775082 91.582259,11.474459 L94.5070131,11.474459 C94.3510131,9.50518033 92.8301607,8.2767541 90.0030787,8.2767541 C87.6437016,8.2767541 85.6938984,9.36865574 85.6938984,11.474459 C85.6938984,13.8140656 87.5462262,14.2820656 89.2816033,14.5745902 C90.6074066,14.8085902 91.816259,14.9060656 91.816259,15.802918 C91.816259,16.4463934 91.2118328,16.7973443 90.2564557,16.7973443 C89.2979311,16.7973443 88.6639967,16.3918033 88.4696361,15.5690164 L85.4412098,15.5690164 C85.6640951,17.6212131 87.4654721,18.8640984 90.2759311,18.8640984 C92.8886852,18.8640984 94.8189148,17.7332459 94.8189148,15.549541 C94.8189148,12.9952131 92.7521607,12.5467869 90.9973082,12.2542623" id="Fill-8" fill="#FEFEFE"></path>
                    <path d="M80.3310393,10.5384787 C81.3644164,10.5384787 82.1052689,11.2989049 82.222318,12.4883803 L78.2837607,12.4883803 C78.4981869,11.2989049 79.1221869,10.5384787 80.3310393,10.5384787 M80.5065148,16.5632656 C79.2000885,16.5632656 78.4592361,15.7249377 78.2641869,14.3795607 L85.4394984,14.3795607 C85.4589738,12.3518557 84.8741213,10.6164787 83.6846459,9.52467541 C82.8267443,8.74477377 81.6958918,8.27677377 80.2724164,8.27677377 C77.2308098,8.27677377 75.1445803,10.5579541 75.1445803,13.5412328 C75.1445803,16.5632656 77.1723836,18.8446426 80.4674656,18.8446426 C81.7347443,18.8446426 82.7487443,18.5131672 83.5871705,17.9282164 C84.4645475,17.3237902 85.0494984,16.4658885 85.2639246,15.5690361 L82.1637934,15.5690361 C81.8907443,16.1929377 81.344941,16.5632656 80.5065148,16.5632656" id="Fill-10" fill="#FEFEFE"></path>
                    <path d="M100.416295,16.1981016 C100.269049,16.2039049 100.071344,16.2124623 99.8896721,16.2124623 C99.2071475,16.2124623 98.7782951,16.0174131 98.7782951,15.2375115 L98.7782951,10.5580033 L100.416295,10.5580033 L100.416295,8.56924918 L98.7782951,8.56924918 L98.7782951,5.41059344 L95.6780656,5.41059344 L95.6780656,8.56924918 L94.702623,8.56924918 L94.702623,10.5580033 L95.6780656,10.5580033 L95.6780656,15.9199377 C95.6780656,18.0647902 97.0039672,18.669118 98.8562951,18.669118 C99.5630164,18.669118 100.097213,18.6162 100.416295,18.5539377 L100.416295,16.1981016 Z" id="Fill-12" fill="#FEFEFE"></path>
                    <polygon id="Fill-1" fill="#FEFEFE" points="39.5355738 18.5521967 42.7138033 18.5521967 42.7138033 8.56927869 39.5355738 8.56927869"></polygon>
                    <path d="M58.7240656,16.2026164 C58.5972787,16.2075344 58.450918,16.2124525 58.3141967,16.2124525 C57.6318689,16.2124525 57.2028197,16.0174033 57.2028197,15.2375016 L57.2028197,10.5579934 L58.7240656,10.5579934 L58.7240656,8.56923934 L57.2028197,8.56923934 L57.2028197,5.41058361 L54.1026885,5.41058361 L54.1026885,8.56923934 L53.068918,8.56923934 L53.068918,10.5579934 L54.1026885,10.5579934 L54.1026885,15.9199279 C54.1026885,18.0647803 55.4284918,18.6691082 57.2808197,18.6691082 C57.9075738,18.6691082 58.3982951,18.6274033 58.7240656,18.5745836 L58.7240656,16.2026164 Z" id="Fill-14" fill="#FEFEFE"></path>
                    <path d="M65.6466689,12.4883508 C65.529718,11.2989738 64.7886689,10.5384492 63.7552918,10.5384492 C62.5464393,10.5384492 61.9225377,11.2989738 61.7080131,12.4883508 L65.6466689,12.4883508 Z M58.5689311,13.5412033 C58.5689311,10.558023 60.6551607,8.27684262 63.6968656,8.27684262 C65.1201443,8.27684262 66.2510951,8.74474426 67.1089967,9.5246459 C68.2983738,10.6165475 68.8832262,12.3518262 68.8637508,14.3796295 L61.6886361,14.3796295 C61.8834885,15.7249082 62.6244393,16.5633344 63.9308656,16.5633344 C64.7691934,16.5633344 65.3151934,16.1929082 65.5880459,15.5690066 L68.6882754,15.5690066 C68.4737508,16.465859 67.8888984,17.3237607 67.011423,17.9282852 C66.1730951,18.5131377 65.1591934,18.8446131 63.8918164,18.8446131 C60.5966361,18.8446131 58.5689311,16.5633344 58.5689311,13.5412033 Z" id="Fill-16" fill="#FEFEFE"></path>
                    <path d="M34.0162721,11.1624984 C35.2641738,11.1624984 35.9660754,10.4215475 35.9660754,9.31007213 C35.9660754,8.19879344 35.2446,7.51636721 34.0162721,7.51636721 L31.5788951,7.51636721 L31.5788951,11.1624984 L34.0162721,11.1624984 Z M28.3613213,4.61118689 L33.8803377,4.61118689 C35.5765672,4.61118689 36.8244689,5.07908852 37.6823705,5.89803934 C38.5793213,6.73636721 39.0862721,7.92584262 39.0862721,9.3296459 C39.0862721,12.0008262 37.2339443,13.8922033 34.3677148,13.8922033 L31.5788951,13.8922033 L31.5788951,18.5521377 L28.3613213,18.5521377 L28.3613213,4.61118689 Z" id="Fill-18" fill="#FEFEFE"></path>
                    <g id="Group-22">
                        <mask id="mask-2" fill="white">
                            <use xlink:href="#path-1"></use>
                        </mask>
                        <g id="Clip-21"></g>
                        <path d="M11.9991934,0.0015442623 C5.37224262,0.0015442623 -1.96721311e-05,5.37380656 -1.96721311e-05,12.0007574 C-1.96721311e-05,17.0842328 3.16276721,21.4299049 7.62637377,23.1782656 C7.52152131,22.2288885 7.42670164,20.768823 7.66798033,19.7323967 C7.8860459,18.7959049 9.07502951,13.7680033 9.07502951,13.7680033 C9.07502951,13.7680033 8.71611148,13.0491836 8.71611148,11.9864951 C8.71611148,10.3180033 9.68319344,9.07236393 10.8873246,9.07236393 C11.9110623,9.07236393 12.4055213,9.8409541 12.4055213,10.7625934 C12.4055213,11.7921344 11.7500459,13.3313803 11.4117836,14.7578066 C11.1290951,15.9521016 12.0107016,16.9260689 13.1886689,16.9260689 C15.3213246,16.9260689 16.9607016,14.6773475 16.9607016,11.4313475 C16.9607016,8.55833115 14.8963082,6.54960984 11.9485377,6.54960984 C8.53434098,6.54960984 6.53034098,9.11042951 6.53034098,11.7569213 C6.53034098,12.7882328 6.92761967,13.8941016 7.42335738,14.495282 C7.52142295,14.6141016 7.53578361,14.7181672 7.50657049,14.8394459 C7.41548852,15.2184295 7.2130623,16.0334459 7.17332459,16.2002656 C7.12099672,16.4199049 6.99942295,16.4665279 6.77201311,16.3606918 C5.27339016,15.663118 4.33640656,13.4720361 4.33640656,11.7121672 C4.33640656,7.92705246 7.08657049,4.45088852 12.2647672,4.45088852 C16.4272918,4.45088852 19.6620787,7.41705246 19.6620787,11.3810852 C19.6620787,15.5164623 17.0546361,18.8445934 13.4355541,18.8445934 C12.2196197,18.8445934 11.0765705,18.2129213 10.6852918,17.4667574 C10.6852918,17.4667574 10.0836197,19.7577738 9.93775082,20.3192164 C9.66686557,21.3614459 8.9355541,22.6678721 8.44640656,23.4648885 C9.56909508,23.8124951 10.7622098,23.9999705 11.9991934,23.9999705 C18.6262426,23.9999705 23.9985049,18.6277082 23.9985049,12.0007574 C23.9985049,5.37380656 18.6262426,0.0015442623 11.9991934,0.0015442623" id="Fill-20" fill="#FEFEFE" mask="url(#mask-2)"></path>
                    </g>
                </g>
            </g>
        </g>
    </g>
</svg>