<svg xmlns="http://www.w3.org/2000/svg" viewBox="-204.5 106.3 285.9 72.3"><style>.st0{filter:url(#Adobe_OpacityMaskFilter);} .st1{fill:#FFFFFF;} .st2{mask:url(#mask-2);fill:#3E82F1;} .st3{filter:url(#Adobe_OpacityMaskFilter_1_);} .st4{mask:url(#mask-4);fill:#32A753;} .st5{filter:url(#Adobe_OpacityMaskFilter_2_);} .st6{mask:url(#mask-6);fill:#F9BB00;} .st7{filter:url(#Adobe_OpacityMaskFilter_3_);} .st8{mask:url(#mask-8);fill:#E74133;} .st9{fill:#6F6F6F;}</style><defs><filter id="Adobe_OpacityMaskFilter" width="74.6" height="73.8" x="-188.8" y="115.9" filterUnits="userSpaceOnUse"><feColorMatrix values="1 0 0 0 0 0 1 0 0 0 0 0 1 0 0 0 0 0 1 0"/></filter></defs><mask id="mask-2" width="74.6" height="73.8" x="-188.8" y="115.9" maskUnits="userSpaceOnUse"><g class="st0"><path id="path-1" d="M-168.8 135.9v13.9h19.4c-.8 4.5-3.4 8.3-7.2 10.9v9h11.6c6.8-6.3 10.7-15.5 10.7-26.5 0-2.5-.2-5-.6-7.4h-33.9z" class="st1"/></g></mask><path id="Fill-1" d="M-188.8 189.7h74.5v-73.8h-74.5z" class="st2"/><defs><filter id="Adobe_OpacityMaskFilter_1_" width="96" height="69.2" x="-221" y="129.3" filterUnits="userSpaceOnUse"><feColorMatrix values="1 0 0 0 0 0 1 0 0 0 0 0 1 0 0 0 0 0 1 0"/></filter></defs><mask id="mask-4" width="96" height="69.2" x="-221" y="129.3" maskUnits="userSpaceOnUse"><g class="st3"><path id="path-3" d="M-201 149.3v9.3c5.9 11.8 18.1 19.8 32.2 19.8 9.7 0 17.9-3.2 23.8-8.7l-11.6-9c-3.2 2.2-7.3 3.4-12.2 3.4-9.4 0-17.3-6.3-20.1-14.8H-201z" class="st1"/></g></mask><path id="Fill-4" d="M-221 198.5h96v-69.2h-96z" class="st4"/><defs><filter id="Adobe_OpacityMaskFilter_2_" width="55.9" height="72.3" x="-224.8" y="106.3" filterUnits="userSpaceOnUse"><feColorMatrix values="1 0 0 0 0 0 1 0 0 0 0 0 1 0 0 0 0 0 1 0"/></filter></defs><mask id="mask-6" width="55.9" height="72.3" x="-224.8" y="106.3" maskUnits="userSpaceOnUse"><g class="st5"><path id="path-5" d="M-201 126.3c-2.4 4.9-3.8 10.4-3.8 16.2 0 5.8 1.4 11.3 3.8 16.2l12-9.3c-.7-2.2-1.1-4.5-1.1-6.8 0-2.4.4-4.7 1.1-6.8v-9.3h-12z" class="st1"/></g></mask><path id="Fill-7" d="M-224.8 178.6h55.8v-72.3h-55.8z" class="st6"/><defs><filter id="Adobe_OpacityMaskFilter_3_" width="96.3" height="69.2" x="-221" y="86.5" filterUnits="userSpaceOnUse"><feColorMatrix values="1 0 0 0 0 0 1 0 0 0 0 0 1 0 0 0 0 0 1 0"/></filter></defs><mask id="mask-8" width="96.3" height="69.2" x="-221" y="86.5" maskUnits="userSpaceOnUse"><g class="st7"><path id="path-7" d="M-201 126.3l12 9.3c2.8-8.5 10.8-14.8 20.1-14.8 5.3 0 10 1.8 13.8 5.4l10.3-10.3c-6.2-5.8-14.4-9.4-24.1-9.4-14 0-26.2 8-32.1 19.8z" class="st1"/></g></mask><path id="Fill-10" d="M-221 155.6h96.2V86.5H-221z" class="st8"/><path d="M-73.8 146.7V142h17v14.9c-2.6 2.1-5.3 3.6-8.1 4.7s-5.6 1.6-8.5 1.6c-3.9 0-7.5-.8-10.7-2.5-3.2-1.7-5.6-4.1-7.3-7.3s-2.5-6.8-2.5-10.7c0-3.9.8-7.5 2.4-10.9 1.6-3.4 4-5.9 7-7.5s6.6-2.5 10.6-2.5c2.9 0 5.5.5 7.9 1.4 2.3.9 4.2 2.2 5.5 3.9 1.3 1.7 2.3 3.9 3 6.6l-4.8 1.3c-.6-2-1.3-3.6-2.2-4.8s-2.2-2.1-3.8-2.8c-1.7-.7-3.5-1.1-5.5-1.1-2.4 0-4.5.4-6.3 1.1-1.8.7-3.2 1.7-4.3 2.9s-1.9 2.5-2.5 4c-1 2.5-1.5 5.2-1.5 8.1 0 3.6.6 6.6 1.8 9s3 4.2 5.4 5.4 4.8 1.8 7.5 1.8c2.3 0 4.5-.4 6.7-1.3s3.8-1.8 5-2.8V147h-11.8zm22.4 1.2c0-5.4 1.5-9.4 4.5-11.9 2.5-2.2 5.5-3.2 9.1-3.2 4 0 7.3 1.3 9.8 3.9 2.5 2.6 3.8 6.2 3.8 10.8 0 3.7-.6 6.7-1.7 8.8-1.1 2.1-2.8 3.8-4.9 5-2.1 1.2-4.5 1.8-7 1.8-4.1 0-7.4-1.3-9.9-3.9-2.5-2.6-3.7-6.4-3.7-11.3zm5 0c0 3.7.8 6.5 2.4 8.4 1.6 1.8 3.7 2.8 6.1 2.8 2.4 0 4.5-.9 6.1-2.8 1.6-1.9 2.4-4.7 2.4-8.5 0-3.6-.8-6.3-2.4-8.2-1.6-1.9-3.7-2.8-6.1-2.8-2.5 0-4.5.9-6.1 2.8s-2.4 4.6-2.4 8.3zm26.1 0c0-5.4 1.5-9.4 4.5-11.9 2.5-2.2 5.5-3.2 9.1-3.2 4 0 7.3 1.3 9.8 3.9 2.5 2.6 3.8 6.2 3.8 10.8 0 3.7-.6 6.7-1.7 8.8-1.1 2.1-2.8 3.8-4.9 5-2.1 1.2-4.5 1.8-7 1.8-4.1 0-7.4-1.3-9.9-3.9-2.4-2.6-3.7-6.4-3.7-11.3zm5.1 0c0 3.7.8 6.5 2.4 8.4 1.6 1.8 3.7 2.8 6.1 2.8 2.4 0 4.5-.9 6.1-2.8s2.4-4.7 2.4-8.5c0-3.6-.8-6.3-2.4-8.2-1.6-1.9-3.7-2.8-6.1-2.8-2.5 0-4.5.9-6.1 2.8s-2.4 4.6-2.4 8.3zm27 17l4.8.7c.2 1.5.8 2.6 1.7 3.2 1.2.9 2.9 1.4 5 1.4 2.3 0 4-.5 5.3-1.4s2.1-2.2 2.5-3.8c.3-1 .4-3.1.4-6.3-2.1 2.5-4.8 3.8-8 3.8-4 0-7.1-1.4-9.3-4.3s-3.3-6.3-3.3-10.4c0-2.8.5-5.3 1.5-7.7 1-2.3 2.5-4.2 4.4-5.4 1.9-1.3 4.1-1.9 6.7-1.9 3.4 0 6.3 1.4 8.5 4.2v-3.5h4.5v25.1c0 4.5-.5 7.7-1.4 9.6-.9 1.9-2.4 3.4-4.4 4.5-2 1.1-4.5 1.6-7.4 1.6-3.5 0-6.3-.8-8.4-2.3-2.2-1.6-3.2-4-3.1-7.1zm4.1-17.5c0 3.8.8 6.6 2.3 8.3s3.4 2.6 5.7 2.6c2.3 0 4.2-.9 5.7-2.6 1.5-1.7 2.3-4.5 2.3-8.2 0-3.6-.8-6.2-2.4-8-1.6-1.8-3.5-2.7-5.7-2.7s-4 .9-5.6 2.7c-1.6 1.8-2.3 4.4-2.3 7.9zm27.8 15.1v-40.1h4.9v40.1h-4.9zm32.5-9.4l5.1.6c-.8 3-2.3 5.3-4.5 6.9s-4.9 2.5-8.3 2.5c-4.2 0-7.6-1.3-10.1-3.9-2.5-2.6-3.7-6.3-3.7-11 0-4.9 1.3-8.7 3.8-11.4s5.8-4 9.8-4c3.9 0 7.1 1.3 9.5 4s3.7 6.4 3.7 11.2v1.3H59.7c.2 3.2 1.1 5.6 2.7 7.3s3.6 2.5 6.1 2.5c1.8 0 3.3-.5 4.6-1.4s2.3-2.5 3.1-4.6zM60 145.2h16.2c-.2-2.4-.8-4.3-1.9-5.5-1.6-1.9-3.6-2.8-6.1-2.8-2.3 0-4.2.8-5.7 2.3-1.5 1.4-2.3 3.4-2.5 6z" class="st9"/></svg>