<?xml version="1.0" encoding="UTF-8"?>
<svg width="88px" height="17px" viewBox="0 0 88 17" version="1.1" xmlns="http://www.w3.org/2000/svg" xmlns:xlink="http://www.w3.org/1999/xlink">
    <!-- Generator: Sketch 47.1 (45422) - http://www.bohemiancoding.com/sketch -->
    <title>Group 2</title>
    <desc>Created with Sketch.</desc>
    <defs></defs>
    <g id="Share-&amp;-Embed" stroke="none" stroke-width="1" fill="none" fill-rule="evenodd">
        <g id="D---Share-Social---Badge" transform="translate(-355.000000, -380.000000)" fill="#FFFFFF">
            <g id="Button-/-Twitter" transform="translate(298.000000, 369.000000)">
                <g id="Group-3" transform="translate(57.000000, 11.000000)">
                    <g id="Group-2">
                        <path d="M35.97,5.688 L32.546,5.688 L32.546,3.576 L41.906,3.576 L41.906,5.688 L38.482,5.688 L38.482,15 L35.97,15 L35.97,5.688 Z M51.158,15 L48.822,15 L47.35,9.448 L47.318,9.448 L45.91,15 L43.558,15 L40.934,6.728 L43.334,6.728 L44.854,12.344 L44.886,12.344 L46.262,6.728 L48.47,6.728 L49.878,12.328 L49.91,12.328 L51.43,6.728 L53.766,6.728 L51.158,15 Z M57.562,5.448 L57.562,3.576 L55.29,3.576 L55.29,5.448 L57.562,5.448 Z M55.29,6.728 L55.29,15 L57.562,15 L57.562,6.728 L55.29,6.728 Z M62.734,6.728 L62.734,4.248 L60.462,4.248 L60.462,6.728 L59.086,6.728 L59.086,8.248 L60.462,8.248 L60.462,13.128 C60.462,13.5440021 60.5313326,13.8799987 60.67,14.136 C60.8086674,14.3920013 60.9979988,14.5893326 61.238,14.728 C61.4780012,14.8666674 61.7553318,14.9599998 62.07,15.008 C62.3846682,15.0560002 62.7179982,15.08 63.07,15.08 C63.2940011,15.08 63.5233322,15.0746667 63.758,15.064 C63.9926678,15.0533333 64.205999,15.0320002 64.398,15 L64.398,13.24 C64.2913328,13.2613334 64.1793339,13.2773333 64.062,13.288 C63.9446661,13.2986667 63.8220006,13.304 63.694,13.304 C63.3099981,13.304 63.0540006,13.2400006 62.926,13.112 C62.7979994,12.9839994 62.734,12.7280019 62.734,12.344 L62.734,8.248 L64.398,8.248 L64.398,6.728 L62.734,6.728 Z M68.866,6.728 L68.866,4.248 L66.594,4.248 L66.594,6.728 L65.218,6.728 L65.218,8.248 L66.594,8.248 L66.594,13.128 C66.594,13.5440021 66.6633326,13.8799987 66.802,14.136 C66.9406674,14.3920013 67.1299988,14.5893326 67.37,14.728 C67.6100012,14.8666674 67.8873318,14.9599998 68.202,15.008 C68.5166682,15.0560002 68.8499982,15.08 69.202,15.08 C69.4260011,15.08 69.6553322,15.0746667 69.89,15.064 C70.1246678,15.0533333 70.337999,15.0320002 70.53,15 L70.53,13.24 C70.4233328,13.2613334 70.3113339,13.2773333 70.194,13.288 C70.0766661,13.2986667 69.9540006,13.304 69.826,13.304 C69.4419981,13.304 69.1860006,13.2400006 69.058,13.112 C68.9299994,12.9839994 68.866,12.7280019 68.866,12.344 L68.866,8.248 L70.53,8.248 L70.53,6.728 L68.866,6.728 Z M77.686,9.976 C77.5793328,9.39999712 77.3900014,8.96266816 77.118,8.664 C76.8459986,8.36533184 76.4326694,8.216 75.878,8.216 C75.5153315,8.216 75.2140012,8.27733272 74.974,8.4 C74.7339988,8.52266728 74.5420007,8.67466576 74.398,8.856 C74.2539993,9.03733424 74.152667,9.22933232 74.094,9.432 C74.035333,9.63466768 74.0006667,9.8159992 73.99,9.976 L77.686,9.976 Z M73.99,11.416 C74.0220002,12.1520037 74.208665,12.6853317 74.55,13.016 C74.891335,13.3466683 75.3819968,13.512 76.022,13.512 C76.480669,13.512 76.8753317,13.3973345 77.206,13.168 C77.5366683,12.9386655 77.739333,12.6960013 77.814,12.44 L79.814,12.44 C79.4939984,13.432005 79.0033366,14.1413312 78.342,14.568 C77.6806634,14.9946688 76.8806714,15.208 75.942,15.208 C75.2913301,15.208 74.7046693,15.104001 74.182,14.896 C73.6593307,14.687999 73.2166685,14.3920019 72.854,14.008 C72.4913315,13.6239981 72.2113343,13.165336 72.014,12.632 C71.8166657,12.098664 71.718,11.5120032 71.718,10.872 C71.718,10.2533302 71.8193323,9.677336 72.022,9.144 C72.2246677,8.610664 72.5126648,8.14933528 72.886,7.76 C73.2593352,7.37066472 73.7046641,7.06400112 74.222,6.84 C74.7393359,6.61599888 75.3126635,6.504 75.942,6.504 C76.6460035,6.504 77.2593307,6.63999864 77.782,6.912 C78.3046693,7.18400136 78.7339983,7.54933104 79.07,8.008 C79.4060017,8.46666896 79.6486659,8.9893304 79.798,9.576 C79.9473341,10.1626696 80.0006669,10.7759968 79.958,11.416 L73.99,11.416 Z M81.802,6.728 L81.802,15 L84.074,15 L84.074,11.272 C84.074,10.8986648 84.111333,10.5520016 84.186,10.232 C84.260667,9.9119984 84.3859991,9.6320012 84.562,9.392 C84.7380009,9.1519988 84.9699986,8.96266736 85.258,8.824 C85.5460014,8.68533264 85.8979979,8.616 86.314,8.616 C86.4526674,8.616 86.5966659,8.62399992 86.746,8.64 C86.8953341,8.65600008 87.0233328,8.67466656 87.13,8.696 L87.13,6.584 C86.9486658,6.5306664 86.7833341,6.504 86.634,6.504 C86.3459986,6.504 86.068668,6.54666624 85.802,6.632 C85.535332,6.71733376 85.2846678,6.83733256 85.05,6.992 C84.8153322,7.14666744 84.6073342,7.33333224 84.426,7.552 C84.2446658,7.77066776 84.1006672,8.00799872 83.994,8.264 L83.962,8.264 L83.962,6.728 L81.802,6.728 Z" id="Twitter"></path>
                        <g id="Group" fill-rule="nonzero">
                            <path d="M11.5864168,6.18197579 C12.353808,3.73146088 13.292776,2.14343666 14.3728798,0.992317189 C15.1784607,0.133222123 15.5941193,-0.139560368 15.1206227,0.8064063 C15.329559,0.63492685 15.6303719,0.407419461 15.863661,0.285742624 C17.1704122,-0.344430206 17.0774287,0.184156613 16.1774805,0.750378361 C18.6349034,-0.148332419 18.5493918,0.996278761 15.9513866,1.56617911 C18.0753416,1.60720967 20.3346209,2.98951514 20.984399,5.92956709 C21.0746152,6.33647708 20.9672413,6.29799324 21.3745979,6.37156528 C22.2546209,6.53087705 23.0817873,6.52125609 23.8884751,6.25922643 C23.8015797,6.86761062 23.0156472,7.26291886 21.7899798,7.52381663 C21.3350245,7.62059217 21.2423177,7.59512492 21.7869357,7.72048036 C22.457469,7.87469868 23.207149,7.91459736 24,7.87667946 C23.3828769,8.60334485 22.3974171,8.97516663 21.1803286,8.99044698 C20.4187489,11.8345723 18.6780744,13.87082 16.4760796,15.1492757 C11.3041453,18.1507321 3.77524359,17.7152422 0,12.2601583 C2.47790141,14.2480182 6.14770827,14.6860548 8.8730124,11.9155016 C7.08722975,11.9155016 6.6245258,10.5484764 8.04058807,9.8102093 C6.69979821,9.79606083 5.84827904,9.36255173 5.34821562,8.57731167 C5.15809743,8.2793449 5.15643701,8.25642438 5.46610551,8.02778512 C5.80621505,7.77594236 6.26947247,7.66416945 6.75016431,7.62681749 C5.3623292,7.22047345 4.51468435,6.47937662 4.22023638,5.48530515 C4.12310176,5.15621175 4.10788123,5.17290695 4.43470741,5.0882991 C4.75516864,5.00538907 5.16695301,4.96124584 5.53584318,4.94228689 C4.44605362,4.26655599 3.7948919,3.43858756 3.62912655,2.52261565 C3.47221678,1.65786119 3.63438455,1.87999216 4.26672816,2.12759038 C7.09553185,3.23315178 9.91686365,4.42162322 11.5864168,6.18197579 L11.5864168,6.18197579 Z" id="Shape"></path>
                        </g>
                    </g>
                </g>
            </g>
        </g>
    </g>
</svg>