<svg xmlns="http://www.w3.org/2000/svg" id="Layer_1" viewBox="-60 117.2 158 49.6"><style>.st0{fill:#00A2D8;} .st1{fill:#FF6600;} .st2{fill:#8BC540;} .st3{fill:#FFFFFF;}</style><path d="M68.8 132l-.4.1c-1.4.4-3 .4-4.5-.9-1.1-.9-1.9-2.2-2.6-3.5-.4-1.1-.7-2.3-.9-3.3-.9-4.4.8-7 2.9-7.2 1.3-.1 3.3.6 3.4 4.8 0 4-.4 7.6 1.8 9.8l.3.2z" class="st0"/><path d="M71 134.7c6.9-.5 12.5-7 13.8-9.4 2.2-4.2 1.3-7-.9-7.7-2.2-.6-4.6.8-6.3 4.8-1.7 3.8-3.5 8.3-7.6 10.4 0 0-1.6.9-4.5.4.1 0 1.1 1.8 5.5 1.5z" class="st0"/><path d="M61.8 139.4l.3.3.1-.6c.4-2.7-.7-5.7-2.8-7.5-.6-.5-1.2-.9-1.9-1.2-.9-.4-1.9-.6-2.9-.6-3.4-.2-5.6 1.3-5.5 3.5.1 1.3.8 3.7 4.7 3.7 3.2-.1 5.9.4 8 2.4z" class="st1"/><path d="M62.6 134.1s1.5 3 .5 6.6c-1.2 3.6-4.7 5.8-7.7 7.4-3.1 1.6-4 4.2-3.3 5.6.8 1.9 3.6 2.7 6.5 1.3 2-.9 7.9-4.9 7.2-12.5-.8-6.7-3.2-8.4-3.2-8.4z" class="st1"/><path d="M68.3 146.5c2-4.1 4.8-5.2 4.8-5.2 6.5-3.2 16.1 3.3 17.3 4 1.4.8 5.6 2 7.2-1.2 1.3-2.7-.4-4.8-2.9-6.3-4-2.4-17-6.9-24.2 3.3 0-.1-1.5 2-2.2 5.4z" class="st2"/><path d="M80.1 157.1c-1.1-1.5-7.9-6.7-7.6-13.6v-.4l-.4.2c-2 1.4-3.8 3.7-4 5.8-.1 1.1-.1 2.3.1 3.4.7 3.4 2.4 6.7 4.8 9.2 3 3 5.8 3.6 7.2 1.9 2-2.1 1.6-4.4-.1-6.5z" class="st2"/><path d="M-54.5 156.9H-60v-37.7h5.5v37.7zm.2-13.3l10.3-11.3h6.8L-48 143.5l11 13.4h-6.5l-10.8-13.3zm30-11.8c7.4 0 12.7 5.2 12.7 12.9 0 7.6-5.3 12.8-12.7 12.8-7.3 0-12.6-5.2-12.6-12.8-.1-7.7 5.3-12.9 12.6-12.9zm0 4.7c-4.1 0-7.1 3.1-7.1 8.1 0 4.9 3 8.1 7.1 8.1 4.2 0 7.2-3.1 7.2-8.1-.1-5-3-8.1-7.2-8.1zm17.3-2.6c3.4-1.3 7.6-2.1 11.2-2.1 6.3 0 10.3 2.4 10.3 9.3v15.8H9.1v-15.3c0-3.5-2.2-4.8-5.3-4.8-1.9 0-3.9.3-5.3.7v19.4H-7v-23zm36.3 17.8l6.9-19.4h5.7l-13.3 34.5h-5.4l3.4-8.9-10.2-25.6h5.9l7 19.4zm7.9 3.2v-.3h2v.3h-.8v2h-.3v-2h-.9zm2.9-.3l.8 1.9.8-1.9h.4v2.3h-.3V155l-.8 1.9h-.3l-.8-1.9v1.9h-.3v-2.3h.5z" class="st3"/></svg>