<svg id="Layer_1" data-name="Layer 1" xmlns="http://www.w3.org/2000/svg" xmlns:xlink="http://www.w3.org/1999/xlink" viewBox="0 0 1020.9 243.98"><defs><style>.cls-1{fill:#fff;}.cls-2{fill:#fefefe;}.cls-3{mask:url(#mask);}</style><mask id="mask" x="0" y="0" width="243.99" height="243.98" maskUnits="userSpaceOnUse"><g transform="translate(0 0)"><g id="mask-2"><polygon id="path-1" class="cls-1" points="0 0 243.99 0 243.99 243.98 0 243.98 0 0"/></g></g></mask></defs><title>Pinterest-Logo-with-text-White</title><g id="Share-_-Embed" data-name="Share-&amp;-Embed"><g id="Pinterest-Logo-White"><g id="Group-23"><path id="Fill-2" class="cls-2" d="M441,87.1h31.13V101h.59C480.25,90.08,490,84.13,504,84.13c22.2,0,35.29,15.86,35.29,38.46v66H507V129.13c0-10.71-5.35-18-15.85-18-10.71,0-17.84,8.92-17.84,21.41v56.1H441Z" transform="translate(0 0)"/><path id="Fill-4" class="cls-2" d="M437.48,60A19.38,19.38,0,1,0,418.1,79.33,19.38,19.38,0,0,0,437.48,60" transform="translate(0 0)"/><path id="Fill-6" class="cls-2" d="M766.58,85.64c-.93-.08-2-.12-3.22-.12-12.29,0-20.62,5.35-27.75,17.44H735V87.1H704.09V188.6H736.4V143c0-21.12,11.7-30.91,30.18-29.2Z" transform="translate(0 0)"/><path id="Fill-8" class="cls-2" d="M925.14,124.57c-12.89-2.38-24.38-3.37-24.38-10.51,0-6.34,6.14-9.31,14.07-9.31,8.92,0,15.07,2.77,16.26,11.89h29.73c-1.58-20-17.05-32.51-45.79-32.51-24,0-43.81,11.1-43.81,32.51,0,23.79,18.83,28.55,36.48,31.52,13.48,2.38,25.77,3.37,25.77,12.49,0,6.54-6.15,10.11-15.86,10.11s-16.19-4.13-18.17-12.49H868.65c2.27,20.86,20.58,33.5,49.16,33.5,26.56,0,46.18-11.5,46.18-33.7,0-26-21-30.53-38.85-33.5" transform="translate(0 0)"/><path id="Fill-10" class="cls-2" d="M816.7,107.13c10.5,0,18,7.73,19.23,19.82h-40c2.18-12.09,8.53-19.82,20.82-19.82m1.78,61.25c-13.28,0-20.81-8.53-22.79-22.2h72.94c.2-20.62-5.74-38.26-17.84-49.36-8.72-7.93-20.22-12.69-34.69-12.69-30.92,0-52.13,23.19-52.13,53.52,0,30.73,20.62,53.92,54.12,53.92,12.88,0,23.19-3.37,31.71-9.32a41.27,41.27,0,0,0,17.05-24H835.33c-2.77,6.34-8.32,10.11-16.85,10.11" transform="translate(0 0)"/><path id="Fill-12" class="cls-2" d="M1020.9,164.66c-1.5.06-3.51.15-5.36.15-6.93,0-11.29-2-11.29-9.91V107.32h16.65V87.1h-16.65V55H972.73V87.1h-9.92v20.22h9.92v54.52c0,21.8,13.48,27.95,32.31,27.95a88.92,88.92,0,0,0,15.86-1.17Z" transform="translate(0 0)"/><polygon id="Fill-1" class="cls-2" points="401.94 188.6 434.26 188.6 434.26 87.11 401.94 87.11 401.94 188.6"/><path id="Fill-14" class="cls-2" d="M597,164.71c-1.29,0-2.78.1-4.17.1-6.94,0-11.3-2-11.3-9.91V107.32H597V87.1H581.56V55H550V87.1H539.53v20.22H550v54.52c0,21.8,13.48,27.95,32.31,27.95a96.72,96.72,0,0,0,14.68-1Z" transform="translate(0 0)"/><path id="Fill-16" class="cls-2" d="M667.41,127c-1.19-12.09-8.73-19.83-19.23-19.83-12.29,0-18.63,7.74-20.82,19.83Zm-72,10.7c0-30.33,21.21-53.52,52.13-53.52,14.47,0,26,4.76,34.69,12.69,12.1,11.1,18,28.74,17.84,49.36H627.17c2,13.67,9.51,22.2,22.79,22.2,8.53,0,14.08-3.77,16.85-10.11h31.52a41.27,41.27,0,0,1-17.05,24c-8.52,5.95-18.83,9.32-31.71,9.32C616.07,191.57,595.45,168.38,595.45,137.65Z" transform="translate(0 0)"/><path id="Fill-18" class="cls-2" d="M345.83,113.47c12.69,0,19.83-7.53,19.83-18.83S358.32,76.4,345.83,76.4H321.05v37.07ZM288.34,46.86h56.11c17.25,0,29.93,4.76,38.65,13.09,9.12,8.52,14.28,20.61,14.28,34.89,0,27.15-18.83,46.38-48,46.38H321.05V188.6H288.34Z" transform="translate(0 0)"/><g id="Group-22"><g class="cls-3"><path id="Fill-20" class="cls-2" d="M122,0A122,122,0,0,0,77.53,235.63c-1.06-9.65-2-24.5.43-35,2.21-9.52,14.3-60.64,14.3-60.64a44,44,0,0,1-3.65-18.11c0-17,9.84-29.63,22.08-29.63,10.41,0,15.43,7.81,15.43,17.18,0,10.47-6.66,26.12-10.1,40.62-2.87,12.14,6.09,22,18.06,22,21.69,0,38.35-22.87,38.35-55.87,0-29.21-21-49.63-50.95-49.63-34.71,0-55.09,26-55.09,52.94,0,10.49,4,21.73,9.08,27.84a3.66,3.66,0,0,1,.85,3.5c-.93,3.85-3,12.14-3.39,13.84-.53,2.23-1.77,2.7-4.08,1.63C53.61,159.23,44.09,137,44.09,119.06c0-38.48,28-73.83,80.6-73.83,42.32,0,75.21,30.16,75.21,70.46,0,42-26.51,75.88-63.31,75.88-12.36,0-24-6.42-28-14,0,0-6.11,23.29-7.6,29-2.75,10.6-10.19,23.88-15.16,32A122,122,0,1,0,122,0" transform="translate(0 0)"/></g></g></g></g></g></svg>