<svg xmlns="http://www.w3.org/2000/svg" id="svg2" viewBox="20.8 114.6 217.9 55.7"><style>.st0{fill:none;} .st1{fill:#FFFFFF;}</style><g id="g4"><path id="rect6" d="M-8 92.5h266v100H-8z" class="st0"/></g><g id="g8"><path id="path10" d="M132 142.1c-1.8 0-3.1.6-4.4 1.2v13.5c1.2.1 2 .1 3.2.1 4.3 0 4.9-2 4.9-4.7v-6.4c0-2.1-.7-3.7-3.7-3.7zm-28.4-.8c-3 0-3.6 1.6-3.6 3.7v1.1h7.3V145c-.1-2-.8-3.7-3.7-3.7zm-55.1 14.1c0 1.6.8 2.4 2.4 2.4 1.8 0 2.8-.6 4.1-1.2v-3.2h-3.9c-1.8 0-2.6.4-2.6 2zm111.2-13.3c-3 0-4 1.6-4 3.6v7.4c0 2 1 3.7 4 3.7s4-1.6 4-3.7v-7.4c0-2-1-3.6-4-3.6zM33.9 163.6h-8.7v-21.2h-4.4v-7.3h4.4v-4.4c0-6 2.5-9.5 9.5-9.5h5.8v7.3h-3.6c-2.7 0-2.9 1-2.9 2.9v3.7h6.6l-.8 7.3H34v21.2zm29.9.1h-7.3l-.3-1.8c-3.3 1.8-6.3 2.1-8.3 2.1-5.3 0-8.2-3.6-8.2-8.5 0-5.8 3.3-7.9 9.3-7.9h6v-1.3c0-3-.3-3.8-4.9-3.8h-7.5l.7-7.3h8.2c10 0 12.2 3.2 12.2 11.2v17.3zM88.6 143c-4.5-.8-5.8-.9-8-.9-3.9 0-5.1.9-5.1 4.2v6.3c0 3.3 1.2 4.2 5.1 4.2 2.2 0 3.5-.2 8-1v7.1c-4 .9-6.6 1.1-8.8 1.1-9.4 0-13.1-4.9-13.1-12.1v-5.1c0-7.1 3.7-12.1 13.1-12.1 2.2 0 4.8.2 8.8 1.1v7.2zm27.4 9h-16v.6c0 3.3 1.2 4.2 5.1 4.2 3.5 0 5.7-.2 10.2-1v7.1c-4.4.9-6.6 1.1-10.9 1.1-9.4 0-13.1-4.9-13.1-12.1v-5.8c0-6.2 2.8-11.4 12.4-11.4s12.4 5.1 12.4 11.4v5.9zm28.4.1c0 6.9-2 11.9-13.9 11.9-4.3 0-6.8-.4-11.6-1.1v-39.4l8.7-1.5v13.8c1.9-.7 4.3-1.1 6.6-1.1 8.7 0 10.2 3.9 10.2 10.2v7.2zm28 .1c0 5.9-2.5 11.7-12.7 11.7-10.3 0-12.8-5.8-12.8-11.7v-5.7c0-6 2.5-11.7 12.8-11.7s12.7 5.8 12.7 11.7v5.7zm28.1 0c0 5.9-2.5 11.7-12.7 11.7-10.3 0-12.8-5.8-12.8-11.7v-5.7c0-6 2.5-11.7 12.8-11.7s12.7 5.8 12.7 11.7v5.7zm28.7 11.4h-9.5l-8-13.4v13.4H203v-40.2l8.7-1.5v25.8l8-12.7h9.5l-8.8 13.9 8.8 14.7zm-41.5-21.5c-3 0-4 1.6-4 3.6v7.4c0 2 1 3.7 4 3.7s4-1.6 4-3.7v-7.4c0-2-1-3.6-4-3.6z" class="st1"/><path id="path12" d="M234.2 158.6c1.5 0 2.6 1.2 2.6 2.7 0 1.5-1.2 2.7-2.7 2.7-1.5 0-2.7-1.2-2.7-2.7.1-1.5 1.3-2.7 2.8-2.7zm0 .5c-1.2 0-2.2 1-2.2 2.3 0 1.3 1 2.3 2.2 2.3 1.2 0 2.2-1 2.2-2.3s-1-2.3-2.2-2.3zm-.5 3.8h-.5v-3c.3 0 .5-.1.9-.1.5 0 .8.1.9.2.2.1.3.3.3.6 0 .4-.3.6-.6.7.3 0 .4.3.5.7.1.5.1.6.2.7h-.5c-.1-.1-.1-.4-.2-.8s-.3-.5-.6-.5h-.3v1.5zm0-1.7h.3c.4 0 .7-.1.7-.5 0-.3-.2-.5-.7-.5h-.3v1z" class="st1"/></g></svg>