<svg xmlns="http://www.w3.org/2000/svg" id="Layer_1" viewBox="9.8 205.7 287.9 76.3"><style>.st0{fill:#FFFFFF;}</style><g id="layer1"><g id="g3019"><path id="path16" d="M9.78 269.63h31.6v-10.4h-20.2V219.6H9.8v50.04z" class="st0"/><path id="path18" d="M57.36 269.63V235.2h-11.4v34.43h11.4zm-5.7-39.12c3.97 0 6.52-2.6 6.52-5.9-.1-3.3-2.45-5.9-6.42-5.9-3.87 0-6.52 2.6-6.52 5.9 0 3.3 2.54 5.9 6.42 5.9z" class="st0"/><path id="path20" d="M62.66 269.63h11.4v-19.26c0-1 .1-2.03.42-2.75.8-2.03 2.75-4.17 5.9-4.17 4.18 0 5.8 3.15 5.8 7.74v18.4H97.6v-19.8c0-10.6-5.6-15.5-13.14-15.5-6.2 0-8.86 3.45-10.4 5.8h.1v-5h-11.5c.2 3.26 0 34.44 0 34.44z" class="st0"/><path id="path22" d="M113.8 219.6h-11.4v50.03h11.4v-11.2l2.86-3.57 8.96 14.77h14.06l-15.08-21.4 13.15-14.56H124s-9.38 13.04-10.2 14.56V219.6z" class="st0"/><path id="path24" d="M170.25 255.26c.1-.9.4-2.54.4-4.48 0-8.86-4.48-17.93-16.4-17.93-12.73 0-18.64 10.1-18.64 19.15 0 11.3 7.2 18.34 19.7 18.34 5 0 9.6-.7 13.4-2.24l-1.53-7.54c-3.06 1.02-6.22 1.53-10.2 1.53-5.3 0-9.97-2.3-10.4-6.9h23.76zm-23.74-7.74c.3-2.95 2.3-7.23 7.2-7.23 5.2 0 6.4 4.5 6.4 7.2h-13.6z" class="st0"/><path id="path26" d="M198.88 219.6v17.33h-.1c-1.64-2.45-5.1-4.08-9.68-4.08-8.77 0-16.6 7.03-16.5 19.05 0 11.2 7.02 18.44 15.68 18.44 4.8 0 9.27-2.03 11.5-6h.22l.4 5.2h10.2c-.1-2.46-.3-6.63-.3-10.7V219.6h-11.42zm0 34.14c0 .9-.1 1.73-.2 2.54-.72 3.16-3.37 5.4-6.73 5.4-4.8 0-7.85-3.77-7.85-9.88 0-5.6 2.65-10.2 7.95-10.2 3.57 0 6 2.46 6.72 5.4.1.73.1 1.44.1 2.05v4.7z" class="st0"/></g></g><path d="M292.1 205.7h-64.6c-3.1 0-5.6 2.4-5.6 5.5v65.3c0 3.1 2.5 5.5 5.6 5.5h64.6c3.1 0 5.6-2.4 5.6-5.5v-65.3c0-3-2.5-5.5-5.6-5.5zm-47.2 63.9h-11.4v-34.4h11.4v34.4zm-5.8-39.1c-4 0-6.4-2.6-6.4-5.9 0-3.4 2.6-5.9 6.5-5.9 4 0 6.3 2.5 6.4 5.9.1 3.2-2.5 5.9-6.5 5.9zm47 39.1h-11.4v-18.4c0-4.6-1.6-7.7-5.8-7.7-3.2 0-5.1 2.1-5.9 4.2-.3.7-.4 1.7-.4 2.8v19.3h-11.4s.2-31.3 0-34.4h11.5v4.8c1.5-2.3 4.2-5.7 10.3-5.7 7.5 0 13.1 4.9 13.1 15.5v19.6z" class="st0"/></svg>