<?xml version="1.0" encoding="UTF-8"?>
<svg width="2769px" height="512px" viewBox="0 0 2769 512" version="1.1" xmlns="http://www.w3.org/2000/svg" xmlns:xlink="http://www.w3.org/1999/xlink">
    <!-- Generator: Sketch 44.1 (41455) - http://www.bohemiancoding.com/sketch -->
    <title>Portfolium_Wordmark_White</title>
    <desc>Created with Sketch.</desc>
    <defs></defs>
    <g id="Page-1" stroke="none" stroke-width="1" fill="none" fill-rule="evenodd">
        <g id="Portfolium_Wordmark_White" fill="#FFFFFF">
            <g id="Wordmark">
                <path d="M1203.34813,0 L1267.92471,0 C1267.92471,20.6067531 1267.94346,41.2135062 1267.92471,61.8015088 C1256.50568,61.8952611 1245.08665,61.7452575 1233.68637,61.8202593 C1223.01736,61.9890134 1211.72958,65.7578554 1204.99817,74.4018165 C1198.248,83.027027 1196.57921,94.3898044 1196.63546,105.040064 C1196.72922,121.577968 1196.61671,138.115872 1196.71047,154.653776 C1220.4298,154.728778 1244.14912,154.616275 1267.86845,154.710027 C1267.99971,173.122977 1267.90595,191.535926 1267.92471,209.930125 C1244.16788,209.986377 1220.4298,209.911375 1196.67297,209.986377 C1196.65422,308.85754 1196.72922,407.747455 1196.65422,506.637369 C1172.46612,506.65612 1148.27803,506.712371 1124.10869,506.599868 C1124.10869,407.784956 1123.93994,308.970043 1124.1837,210.155131 C1110.58961,209.72387 1096.97678,210.061378 1083.3827,209.948876 C1083.40145,191.535926 1083.3077,173.122977 1083.43895,154.710027 C1096.97678,154.635025 1110.51461,154.710027 1124.05244,154.653776 C1124.08994,136.878342 1124.08994,119.084157 1124.05244,101.308723 C1123.97744,85.3708342 1126.62126,69.2829415 1132.90266,54.5825826 C1141.82788,33.3570644 1159.2658,15.56288 1180.84758,7.2376767 C1188.14151,4.20010254 1196.07295,3.09382553 1203.34813,0" id="Fill-1"></path>
                <path d="M105.115066,3.39383286 C135.040797,3.30008057 164.947777,3.3750824 194.873508,3.35633194 C232.524427,3.65633927 271.037867,14.6066066 300.401084,38.8321981 C328.264264,61.0327401 345.964696,94.577309 351.214825,129.603164 C355.096169,158.197612 353.183623,188.048341 342.608364,215.086501 C330.795576,246.512268 307.057497,273.081667 277.525526,288.907053 C253.374936,301.901121 225.961767,308.145023 198.6611,308.951293 C158.197612,308.932542 117.752875,308.932542 77.3081374,308.932542 C77.2331356,374.840401 77.3268879,440.72951 77.251886,506.618619 C51.6762616,506.712371 26.1193877,506.637369 0.543763275,506.65612 C0.318757782,370.28404 0.525012818,233.89321 0.431260529,97.5211309 C0.487511902,72.2455138 10.5565077,46.5948876 29.6257233,29.6444737 C49.9324691,11.0440196 78.151908,3.91884567 105.115066,3.39383286 Z M77.4206402,72.3580166 C77.2331356,128.065627 77.3081374,183.773237 77.3831392,239.480847 C113.47777,239.649601 149.591152,239.555849 185.685783,239.537098 C209.630118,239.21834 234.961986,233.499451 252.73742,216.436534 C269.10657,200.967406 276.925511,177.885593 275.931737,155.6288 C276.700505,132.940746 268.244049,109.408921 251.08738,94.127298 C234.418223,78.9581777 211.467663,72.6767743 189.323372,72.4142679 C152.028712,72.2080129 114.715301,72.3580166 77.4206402,72.3580166 L77.4206402,72.3580166 Z" id="Fill-2"></path>
                <path d="M1665.88442,17.9254376 C1674.26588,13.1253204 1683.43485,9.99399399 1692.69758,7.40643082 C1692.73508,138.659635 1692.71633,269.93159 1692.71633,401.184795 C1692.82883,412.603823 1693.6726,425.110379 1701.15403,434.373105 C1707.58544,441.517029 1717.44818,444.573354 1726.84216,444.798359 C1739.04871,444.910862 1751.25526,444.760858 1763.48055,444.854611 C1763.4993,465.442613 1763.51805,486.011866 1763.4618,506.599868 C1746.8864,506.731121 1730.31099,506.618619 1713.75434,506.67487 C1690.39127,506.524866 1666.44693,499.062184 1649.10276,482.974291 C1634.68366,469.473962 1625.75844,450.798506 1622.34586,431.485534 C1620.00205,419.072731 1620.0208,406.378671 1620.0958,393.797114 L1620.0958,114.396543 C1619.96455,99.9399399 1619.81455,85.2020801 1623.9959,71.1954882 C1630.07105,48.7699407 1645.40892,29.0069582 1665.88442,17.9254376" id="Fill-3"></path>
                <path d="M934.072805,75.489343 C946.673112,62.4577748 963.492273,54.1513221 980.967699,49.9324691 C981.173954,84.8458214 980.930198,119.759174 981.098953,154.672526 C1004.18077,154.710027 1027.26258,154.635025 1050.36314,154.710027 C1050.51315,173.122977 1050.38189,191.535926 1050.4194,209.948876 C1027.30008,209.986377 1004.18077,209.892624 981.042701,209.986377 L981.042701,404.953637 C981.155204,415.716399 983.967773,427.116678 991.674211,435.029371 C998.668132,441.723284 1008.54962,444.83586 1018.11236,444.854611 C1028.87512,444.854611 1039.61913,444.798359 1050.38189,444.854611 C1050.4569,465.442613 1050.43815,486.030616 1050.40064,506.637369 C1033.45023,506.67487 1016.49982,506.69362 999.549403,506.637369 C976.167582,505.793598 952.354501,497.205889 935.94785,480.105471 C917.216143,461.561269 908.778437,434.748114 908.440929,408.834981 C908.459679,318.795283 908.440929,228.736834 908.440929,138.697136 C908.90969,115.484069 917.441148,91.9897458 934.072805,75.489343" id="Fill-4"></path>
                <path d="M1801.54398,71.7392514 C1825.73207,71.6642496 1849.92016,71.7017505 1874.10825,71.720501 C1874.12701,97.2961254 1874.14576,122.87175 1874.10825,148.447374 C1849.92016,148.597378 1825.73207,148.522376 1801.54398,148.503626 C1801.48773,122.909251 1801.50648,97.3148759 1801.54398,71.7392514" id="Fill-5"></path>
                <path d="M478.324178,144.697283 C512.918772,141.847213 548.994653,142.090969 581.714202,155.066286 C606.539808,164.610269 628.646598,181.84194 642.634439,204.586245 C654.897239,224.724236 659.997363,248.462316 660.409873,271.825386 C660.428624,306.232476 660.391123,340.639566 660.428624,375.046656 C660.784882,398.12847 657.184795,421.829049 646.478283,442.510803 C630.915403,472.699041 601.327181,494.037061 569.020142,503.224786 C542.638248,511.362484 514.756317,511.006226 487.455651,510.068703 C450.442247,507.612393 412.510071,494.093313 387.440709,465.761371 C366.027686,443.017066 357.58998,411.122537 357.17747,380.540541 C357.17747,344.933421 357.196221,309.326302 357.15872,273.719183 C357.608731,245.255988 364.5464,215.724017 382.9781,193.354721 C405.853659,164.216509 442.229547,148.784882 478.324178,144.697283 L478.324178,144.697283 Z M483.405552,216.080275 C468.067677,219.267853 452.992309,226.280524 442.623306,238.318318 C429.816744,252.493664 425.654142,272.106643 425.260382,290.688347 C425.260382,314.98894 425.279133,339.308284 425.241632,363.627628 C425.616641,382.265583 430.098,401.784809 442.867062,415.997656 C458.617447,433.566835 483.255548,440.317 506.206109,439.885739 C527.95664,440.654508 551.169706,436.529407 568.326375,422.260309 C584.376767,409.116238 591.914451,387.946971 592.101956,367.621475 C592.326961,343.208379 592.101956,318.795283 592.214458,294.400938 C592.27071,284.894455 591.820699,275.294221 589.439391,266.031495 C585.351791,249.381088 574.776533,234.118216 559.682414,225.624258 C536.806856,212.330184 508.849923,212.217681 483.405552,216.080275 L483.405552,216.080275 Z" id="Fill-6"></path>
                <path d="M764.643668,185.779536 C789.806782,155.122537 831.189043,141.397202 869.98374,144.322273 C869.946239,166.204058 869.964989,188.085842 869.98374,209.967626 C849.283234,210.623892 827.138944,206.930052 808.050978,217.055299 C780.975317,230.59313 766.424962,261.287629 766.068703,290.669596 C765.824947,362.633853 766.068703,434.616861 765.93745,506.581118 C741.76811,506.731121 717.580019,506.65612 693.391929,506.637369 C693.316927,387.159452 693.391929,267.681535 693.373178,148.184868 C717.111258,148.166117 740.849337,148.166117 764.606167,148.184868 C764.568666,160.710174 764.493664,173.25423 764.643668,185.779536" id="Fill-7"></path>
                <path d="M1392.42774,145.82231 C1405.68432,143.666007 1419.14715,143.140995 1432.57247,143.422252 C1463.82949,142.747235 1495.96777,148.597378 1523.23094,164.479016 C1550.40035,180.248151 1571.49462,206.967553 1578.22603,237.905808 C1583.90742,259.993848 1582.27613,282.925657 1582.48238,305.482458 C1582.48238,331.170585 1582.50114,356.839962 1582.48238,382.528089 C1581.95737,413.128836 1572.7134,444.83586 1551.00037,467.223907 C1530.56237,489.555702 1501.61166,502.549769 1472.11719,507.649894 C1453.49799,511.231231 1434.48502,510.387461 1415.64081,510.387461 C1377.08987,509.056178 1337.1514,496.00586 1310.52575,467.017652 C1288.53146,444.104592 1279.56874,411.760053 1279.21248,380.634293 C1279.24998,355.602432 1279.21248,330.589321 1279.23123,305.55746 C1279.41874,284.27569 1277.9937,262.750165 1282.68132,241.805903 C1287.33143,218.049073 1299.68798,195.848531 1317.81967,179.723138 C1338.29517,160.841427 1365.20208,150.228668 1392.42774,145.82231 L1392.42774,145.82231 Z M1407.70937,215.667765 C1392.10899,218.480334 1376.69611,225.099246 1365.9146,237.043287 C1352.30177,251.124881 1347.37039,271.412876 1347.46415,290.538343 C1347.4829,315.570204 1347.42665,340.583315 1347.4829,365.615176 C1347.65165,385.396909 1353.8768,406.191167 1368.80217,419.879001 C1385.24632,435.216875 1408.68439,440.523255 1430.62243,439.885739 C1452.84172,440.579506 1476.56105,435.291877 1493.21146,419.728997 C1507.91181,406.003662 1514.24947,385.359408 1514.21197,365.652677 C1514.32447,341.952098 1514.19322,318.232769 1514.26822,294.51344 C1514.30572,284.988208 1514.04321,275.350472 1511.4369,266.125247 C1507.4243,249.549843 1496.99905,234.511975 1482.18619,225.849264 C1459.91064,212.630191 1432.66623,212.386435 1407.70937,215.667765 L1407.70937,215.667765 Z" id="Fill-8"></path>
                <path d="M2328.30059,183.566982 C2362.07017,147.828609 2416.25899,135.809566 2462.94763,149.178642 C2488.76701,156.247565 2510.93005,173.610489 2525.70541,195.754779 C2545.26214,171.62294 2572.67531,153.397495 2603.38856,147.341097 C2637.04563,140.703435 2673.49652,143.197246 2704.34102,159.060133 C2733.9105,174.210503 2754.81726,203.611221 2762.37369,235.674504 C2764.7175,243.71845 2764.49249,252.32491 2767.56757,260.162602 L2767.56757,506.562367 C2743.19197,506.731121 2718.81638,506.712371 2694.45953,506.581118 C2694.53453,443.317073 2694.45953,380.071779 2694.49703,316.807735 C2694.19703,297.851022 2695.88457,278.575551 2691.1407,260.012598 C2686.60309,241.26214 2674.41529,223.824214 2656.50861,215.817769 C2630.70798,204.117483 2598.19468,206.592544 2575.37538,223.749213 C2557.69369,237.062038 2548.80598,259.468835 2548.58097,281.181865 C2548.56222,356.3337 2548.63722,431.485534 2548.54347,506.637369 C2524.37413,506.65612 2500.18604,506.712371 2476.0167,506.599868 C2475.9417,439.023218 2475.99795,371.427818 2475.99795,303.832418 C2476.0542,286.450743 2476.2042,268.562807 2470.05405,252.024903 C2464.03516,234.868234 2450.72233,220.186626 2433.49066,213.905222 C2406.64001,204.042482 2373.47045,207.66132 2352.11367,227.686809 C2336.10078,242.762177 2330.02564,265.356478 2329.81938,286.769501 C2329.65063,360.04629 2329.83813,433.323079 2329.72563,506.599868 C2305.53754,506.712371 2281.3682,506.67487 2257.18011,506.618619 C2257.12386,387.140702 2257.16136,267.662785 2257.16136,148.184868 C2280.89944,148.166117 2304.63752,148.184868 2328.3756,148.184868 C2328.31934,159.978906 2328.4131,171.772944 2328.30059,183.566982" id="Fill-9"></path>
                <path d="M1920.08438,148.166117 C1944.30997,148.203618 1968.53556,148.147367 1992.76115,148.203618 C1992.6674,221.949169 1992.7799,295.675969 1992.7049,369.421519 C1993.00491,388.584487 1997.43002,408.741229 2010.16158,423.647843 C2019.96807,435.648136 2034.68717,442.810811 2049.81879,445.24837 C2072.33809,448.90471 2097.2012,444.4046 2114.67663,429.029224 C2131.38329,414.253864 2138.48971,391.284553 2138.48971,369.515271 C2138.39596,295.769721 2138.58346,222.024171 2138.41471,148.27862 C2162.62155,148.072365 2186.84714,148.222369 2211.07273,148.184868 C2211.05398,267.662785 2211.11023,387.140702 2211.05398,506.618619 C2187.33465,506.67487 2163.61532,506.69362 2139.89599,506.618619 C2139.87724,495.274592 2139.74599,483.911814 2140.0085,472.567787 C2134.96462,475.774116 2131.06453,480.386728 2126.35816,483.986816 C2101.64506,503.618545 2069.43177,512.562514 2038.13726,511.043727 C2012.01787,510.106204 1985.52347,502.418516 1964.78547,486.105618 C1942.71618,469.361459 1928.40958,443.654581 1923.45946,416.597671 C1918.9781,394.940892 1920.25313,372.74035 1920.10313,350.783564 C1920.08438,283.244415 1920.12188,215.705266 1920.08438,148.166117" id="Fill-10"></path>
                <path d="M1874.0895,152.197466 C1874.27701,270.119095 1873.88325,388.059474 1874.27701,505.981103 C1850.03267,506.506116 1825.76957,506.074855 1801.52523,506.206109 C1801.50648,417.460192 1801.54398,328.714275 1801.50648,239.949608 C1801.88149,215.555263 1812.02549,191.067165 1830.38219,174.716766 C1842.56998,163.372739 1858.09536,156.341317 1874.0895,152.197466 Z" id="Fill-11"></path>
            </g>
        </g>
    </g>
</svg>