<?xml version="1.0" encoding="UTF-8"?>
<svg width="138px" height="32px" viewBox="0 0 138 32" version="1.1" xmlns="http://www.w3.org/2000/svg" xmlns:xlink="http://www.w3.org/1999/xlink">
    <!-- Generator: Sketch 48.2 (47327) - http://www.bohemiancoding.com/sketch -->
    <title>buttonauth-portfolium</title>
    <desc>Created with Sketch.</desc>
    <defs></defs>
    <g id="Page-1" stroke="none" stroke-width="1" fill="none" fill-rule="evenodd">
        <g id="buttonauth-portfolium" fill="#FFFFFF" fill-rule="nonzero">
            <g transform="translate(4.000000, 4.000000)">
                <path d="M56.3981314,0 L59.4246857,0 C59.4246857,0.965790647 59.4255644,1.93158129 59.4246857,2.89649315 C58.8895023,2.9008871 58.3543189,2.89385678 57.8200142,2.89737194 C57.3199825,2.90528105 56.7909505,3.08191792 56.4754649,3.4870403 C56.1591001,3.89128388 56.0808878,4.42383086 56.0835241,4.92298378 C56.0879185,5.69807693 56.0826454,6.47317007 56.0870397,7.24826321 C57.1987096,7.25177838 58.310379,7.24650562 59.4220489,7.25089956 C59.4282007,8.11387175 59.4238064,8.9768439 59.4246857,9.83893728 C58.3112582,9.84157368 57.1987096,9.83805851 56.0852821,9.84157368 C56.0844034,14.4754354 56.0879185,19.110176 56.0844034,23.7449165 C54.9507633,23.7457953 53.8171237,23.7484317 52.6843629,23.7431589 C52.6843629,19.1119336 52.676454,14.4807082 52.6878785,9.84948278 C52.050755,9.82927058 51.4127533,9.8450888 50.7756304,9.83981609 C50.7765091,8.9768439 50.7721153,8.11387175 50.7782667,7.25089956 C51.4127533,7.24738439 52.04724,7.25089956 52.6817266,7.24826321 C52.6834841,6.41516991 52.6834841,5.5811978 52.6817266,4.7481045 C52.6782115,4.00113268 52.8021212,3.24713052 53.0965159,2.55815885 C53.5148202,1.56336812 54.332095,0.729396032 55.3435829,0.339213093 C55.6854324,0.196849049 56.0571606,0.145000415 56.3981314,0" id="Fill-1"></path>
                <path d="M4.92649895,0.159061062 C6.32904845,0.15466711 7.73071912,0.158182272 9.13326861,0.157303481 C10.8978797,0.171364128 12.7029152,0.684577719 14.079101,1.81997491 C15.3849835,2.86046274 16.2145616,4.43261876 16.4606229,6.07419922 C16.6425325,7.41435457 16.5528959,8.81338889 16.0572581,10.0806046 C15.5036202,11.5534573 14.3910716,12.7987033 13.0069767,13.5404024 C11.8750946,14.1494042 10.5903031,14.4420414 9.31078425,14.4798294 C7.41435457,14.4789506 5.5188037,14.4789506 3.62325281,14.4789506 C3.61973765,17.5678988 3.6241316,20.6559683 3.62061643,23.7440378 C2.42194633,23.7484317 1.22415502,23.7449165 0.0254849215,23.7457953 C0.0149394367,17.3543528 0.0246061311,10.9620314 0.0202121791,4.57058886 C0.0228485503,3.3859794 0.494758992,2.18379414 1.38848883,1.38936762 C2.34021883,0.517607543 3.66279838,0.183667193 4.92649895,0.159061062 Z M3.62852555,3.39125214 C3.61973765,6.00213843 3.62325281,8.6130247 3.62676797,11.223911 C5.31843946,11.2318201 7.01098978,11.2274261 8.70266129,11.2265473 C9.82487664,11.2116079 11.0121224,10.9435768 11.8452157,10.1438776 C12.6123998,9.41887546 12.9788554,8.3370845 12.9322795,7.29396032 C12.9683099,6.23062393 12.5719754,5.12774196 11.7678822,4.41152779 C10.9866375,3.70058636 9.91099811,3.40619158 8.87314663,3.39388851 C7.12523256,3.38422182 5.37643967,3.39125214 3.62852555,3.39125214 Z" id="Fill-2"></path>
                <path d="M78.0761328,0.840123618 C78.4689524,0.615153276 78.8986807,0.468395282 79.3328033,0.347122207 C79.3345608,6.49865498 79.3336821,12.6510666 79.3336821,18.8025994 C79.3389547,19.3377827 79.3785002,19.9239359 79.7291375,20.3580584 C80.0305627,20.6928775 80.4928064,20.8361203 80.9330805,20.8466658 C81.5051731,20.8519385 82.0772657,20.8449082 82.6502367,20.8493022 C82.6511155,21.814214 82.6519942,22.7782471 82.6493579,23.7431589 C81.8725074,23.7493105 81.0956565,23.7440378 80.3196847,23.7466741 C79.2247119,23.7396438 78.1024963,23.3898852 77.2896154,22.635883 C76.6138257,22.003154 76.1955213,21.1278787 76.0355816,20.2227246 C75.9257327,19.6409654 75.9266115,19.0460243 75.9301265,18.4563559 L75.9301265,5.36150022 C75.9239752,4.68395282 75.916945,3.99322356 76.1129152,3.33676714 C76.3976433,2.28573382 77.1164937,1.35948875 78.0761328,0.840123618" id="Fill-3"></path>
                <path d="M43.7778224,3.53801014 C44.3683696,2.92725081 45.1566446,2.53794667 45.9756772,2.34021883 C45.9853439,3.97652655 45.9739196,5.61283428 45.9818288,7.24914198 C47.0636199,7.25089956 48.1454107,7.24738439 49.2280803,7.25089956 C49.2351109,8.11387175 49.2289591,8.9768439 49.2307171,9.83981609 C48.1471683,9.84157368 47.0636199,9.83717969 45.9791924,9.84157368 L45.9791924,18.9792362 C45.9844651,19.4836619 46.1162837,20.0179665 46.4774665,20.388816 C46.8052554,20.7025442 47.2683778,20.8484234 47.7165612,20.8493022 C48.2209867,20.8493022 48.7245335,20.8466658 49.2289591,20.8493022 C49.2324746,21.814214 49.2315958,22.7791259 49.2298378,23.7449165 C48.4354115,23.7466741 47.6409852,23.7475529 46.8465585,23.7449165 C45.7507069,23.7053709 44.6346431,23.302885 43.8657015,22.5014281 C42.9877899,21.6323044 42.5923342,20.3756342 42.576516,19.1611458 C42.5773947,14.9411943 42.576516,10.720364 42.576516,6.50041256 C42.5984857,5.41247004 42.9983353,4.31134569 43.7778224,3.53801014" id="Fill-4"></path>
                <path d="M84.4341812,3.36225206 C85.5678208,3.3587369 86.7014604,3.36049448 87.8351,3.36137327 C87.8359792,4.56004337 87.836858,5.75871348 87.8351,6.95738357 C86.7014604,6.9644139 85.5678208,6.96089873 84.4341812,6.96001997 C84.4315449,5.76047107 84.4324237,4.56092216 84.4341812,3.36225206" id="Fill-5"></path>
                <path d="M22.417943,6.78162551 C24.0393113,6.64804935 25.730104,6.65947363 27.2635933,7.26759659 C28.4271118,7.71490091 29.4632057,8.5225093 30.1187833,9.58848203 C30.6935122,10.5323029 30.9325432,11.6448516 30.9518766,12.7398244 C30.9527554,14.3524047 30.9509978,15.9649851 30.9527554,17.5775655 C30.9694524,18.6593565 30.8007247,19.7701476 30.2989353,20.7394534 C29.5695393,22.1543059 28.182808,23.1543694 26.6686522,23.5849767 C25.4321941,23.9663717 24.1254328,23.9496747 22.845914,23.9057352 C21.1111817,23.7906136 19.3333887,23.1570058 18.158446,21.8291535 C17.1548673,20.7631807 16.7594117,19.2683582 16.7400783,17.8350511 C16.7400783,16.1662281 16.7409571,14.4974052 16.7391995,12.8285822 C16.7602905,11.4945784 17.0854429,10.1104835 17.9492939,9.0620866 C19.0214182,7.69644629 20.7262715,6.97320178 22.417943,6.78162551 Z M22.6560952,10.1271805 C21.9372447,10.2765749 21.2306972,10.6052425 20.7447261,11.1694259 C20.1445123,11.8337915 19.9494208,12.7530062 19.9309662,13.6238875 C19.9309662,14.7627999 19.931845,15.902591 19.9300874,17.0423822 C19.9476632,17.9158998 20.1576941,18.8307206 20.7561504,19.4968437 C21.4943343,20.3202703 22.6490649,20.6366349 23.7247044,20.6164227 C24.7441012,20.6524531 25.8320437,20.4591192 26.6361369,19.7903597 C27.3883815,19.1743277 27.7416553,18.1821733 27.7504432,17.2295645 C27.7609886,16.0853794 27.7504432,14.9411943 27.7557159,13.797888 C27.7583523,13.3523413 27.7372613,12.9024006 27.6256549,12.4682782 C27.4340786,11.6879123 26.9384409,10.9725769 26.2310146,10.5744848 C25.1588903,9.95142247 23.8486138,9.94614971 22.6560952,10.1271805 Z" id="Fill-6"></path>
                <path d="M35.8370724,8.70705527 C37.0164091,7.27023295 38.9558995,6.62695838 40.7741169,6.76404966 C40.7723593,7.78959809 40.773238,8.81514648 40.7741169,9.84069486 C39.8039322,9.87145252 38.7660808,9.69833082 37.8714722,10.1728776 C36.6024988,10.8073643 35.9205575,12.2459442 35.9038605,13.6230087 C35.8924362,16.9958063 35.9038605,20.3694826 35.897709,23.7422802 C34.7649481,23.7493105 33.6313085,23.7457953 32.4976689,23.7449165 C32.4941537,18.1452641 32.4976689,12.5456117 32.4967901,6.94508052 C33.6093388,6.9442017 34.7218874,6.9442017 35.8353148,6.94508052 C35.8335572,7.53211251 35.8300421,8.12002328 35.8370724,8.70705527" id="Fill-7"></path>
                <path d="M65.2598535,6.83435291 C65.8811586,6.733292 66.5121301,6.70868591 67.1413437,6.72186777 C68.6062876,6.69023129 70.1125341,6.9644139 71.3902956,7.70874938 C72.6636627,8.44781211 73.6523021,9.70008841 73.9677877,11.1500925 C74.2340612,12.1853077 74.1576065,13.2600683 74.1672729,14.3172531 C74.1672729,15.521196 74.1681522,16.7242601 74.1672729,17.9282029 C74.1426669,19.3623888 73.7094235,20.8484234 72.6917843,21.8976991 C71.7339027,22.9443385 70.3770501,23.5533402 68.9947129,23.7923712 C68.1220742,23.9602202 67.2309805,23.9206746 66.3477961,23.9206746 C64.5410031,23.8582805 62.6691798,23.2466424 61.4212975,21.8880324 C60.3904762,20.8141505 59.9704143,19.2982371 59.9537172,17.8394451 C59.9554748,16.6662599 59.9537172,15.4939535 59.954596,14.3207683 C59.9633842,13.3233412 59.8965958,12.3144898 60.1162937,11.3328809 C60.3342336,10.2194535 60.9133564,9.17896568 61.7631465,8.42320597 C62.7227857,7.53826404 63.98385,7.04086868 65.2598535,6.83435291 Z M65.976068,10.1078471 C65.2449144,10.2396657 64.5225485,10.5498787 64.0172442,11.1096682 C63.3792425,11.7696398 63.1481201,12.720491 63.1525145,13.6168572 C63.1533932,14.7900424 63.1507569,15.9623488 63.1533932,17.1355339 C63.1613021,18.0626578 63.4530605,19.0372364 64.1525779,19.6787534 C64.923277,20.3976039 66.0217649,20.6463016 67.0499499,20.6164227 C68.0913164,20.6489379 69.2029863,20.4011191 69.9833523,19.671723 C70.6723235,19.0284485 70.9693549,18.0609002 70.9675974,17.1372915 C70.97287,16.0265005 70.9667186,14.9148306 70.9702337,13.8031608 C70.9719913,13.3567353 70.959688,12.905037 70.8375363,12.4726721 C70.6494751,11.6958214 70.1608678,10.9910315 69.4666235,10.5850303 C68.4226202,9.9654831 67.145738,9.95405882 65.976068,10.1078471 Z" id="Fill-8"></path>
                <path d="M109.12204,8.60335801 C110.704742,6.92838349 113.244446,6.36507886 115.432634,6.9916564 C116.642728,7.3229604 117.681458,8.13672031 118.373945,9.17457174 C119.290524,8.0435685 120.575315,7.18938424 122.014774,6.90553493 C123.592203,6.59444313 125.300571,6.71132226 126.746181,7.45477893 C128.132034,8.16484157 129.111885,9.54278492 129.466038,11.0455165 C129.575887,11.4225176 129.565341,11.8258824 129.709463,12.1932168 L129.709463,23.7414014 C128.567035,23.7493105 127.424608,23.7484317 126.283059,23.7422802 C126.286574,20.7772414 126.283059,17.8130813 126.284816,14.8480426 C126.270756,13.9595855 126.349847,13.0561889 126.127513,12.1861864 C125.914846,11.307396 125.343632,10.4901209 124.504387,10.1148775 C123.295172,9.56651225 121.771349,9.68251261 120.701861,10.4866058 C119.873162,11.110547 119.456615,12.1607015 119.44607,13.1783408 C119.445191,16.7005327 119.448706,20.2227246 119.444312,23.7449165 C118.311551,23.7457953 117.177912,23.7484317 116.045151,23.7431589 C116.041636,20.5759983 116.044272,17.407959 116.044272,14.2399196 C116.046908,13.4252809 116.053938,12.5869149 115.765695,11.8118217 C115.483604,11.0077285 114.859662,10.3196357 114.052054,10.0252408 C112.793626,9.56299713 111.239046,9.73260366 110.238104,10.6711518 C109.487617,11.3776993 109.202889,12.4366417 109.193222,13.4402203 C109.185313,16.8745332 109.194101,20.3088461 109.188828,23.7431589 C108.055189,23.7484317 106.922428,23.7466741 105.788788,23.7440378 C105.786152,18.1443853 105.787909,12.5447329 105.787909,6.94508052 C106.900458,6.9442017 108.013007,6.94508052 109.125555,6.94508052 C109.122919,7.49783968 109.127313,8.05059884 109.12204,8.60335801" id="Fill-9"></path>
                <path d="M89.9898944,6.9442017 C91.1252915,6.94595929 92.2606886,6.94332293 93.3960858,6.94595929 C93.3916919,10.4022419 93.3969645,13.8576458 93.3934495,17.3139284 C93.4075102,18.2120522 93.6149049,19.1567519 94.2116035,19.8553902 C94.6712109,20.4178161 95.3610609,20.753514 96.0702448,20.8677568 C97.1256721,21.0391209 98.2909483,20.8282112 99.1099811,20.1076031 C99.8929834,19.4151163 100.226045,18.338598 100.226045,17.3183223 C100.221651,13.8620397 100.230439,10.4057571 100.22253,6.94947446 C101.357048,6.93980776 102.492445,6.9468381 103.627842,6.94508052 C103.626964,12.5447329 103.6296,18.1443853 103.626964,23.7440378 C102.515294,23.7466741 101.403624,23.7475529 100.291954,23.7440378 C100.291075,23.2123696 100.284924,22.6798226 100.297227,22.1481544 C100.060832,22.2984276 99.8780439,22.51461 99.6574673,22.6833377 C98.4992217,23.6034313 96.9894596,24.0226143 95.5227586,23.9514323 C94.2986035,23.9074928 93.0568725,23.5471887 92.0849306,22.7826411 C91.0505943,21.9978812 90.3800772,20.7930596 90.1480766,19.5249651 C89.9380456,18.5099621 89.9978033,17.4694743 89.9907732,16.4404107 C89.9898944,13.2750077 89.9916519,10.1096047 89.9898944,6.9442017" id="Fill-10"></path>
                <path d="M87.8342212,7.13314167 C87.8430094,12.6598545 87.8245548,18.1874461 87.8430094,23.7141589 C86.7067335,23.738765 85.5695783,23.7185528 84.4333025,23.7247044 C84.4324237,19.5653894 84.4341812,15.4060744 84.4324237,11.2458807 C84.4499995,10.1025744 84.9254252,8.95487416 85.7857611,8.18856894 C86.3569745,7.65690075 87.084613,7.32735434 87.8342212,7.13314167 Z" id="Fill-11"></path>
            </g>
        </g>
    </g>
</svg>