<?xml version="1.0" encoding="UTF-8"?>
<svg width="16px" height="16px" viewBox="0 0 16 16" version="1.1" xmlns="http://www.w3.org/2000/svg" xmlns:xlink="http://www.w3.org/1999/xlink">
    <!-- Generator: Sketch 47.1 (45422) - http://www.bohemiancoding.com/sketch -->
    <title>Shape</title>
    <desc>Created with Sketch.</desc>
    <defs></defs>
    <g id="Share-&amp;-Embed" stroke="none" stroke-width="1" fill="none" fill-rule="evenodd">
        <g id="M---Share-Link---Badge" transform="translate(-20.000000, -189.000000)" fill-rule="nonzero" fill="#6C6B80">
            <g id="URL" transform="translate(8.000000, 153.000000)">
                <g id="Icon-/-Link" transform="translate(12.000000, 36.000000)">
                    <path d="M6.55025862,12.3030012 L5.45294579,13.3993466 C4.65823647,14.1377392 3.4213809,14.1160755 2.65306361,13.3503064 C1.88474632,12.5845373 1.86004569,11.3488287 2.59714856,10.5530207 L5.93548505,7.21299181 C6.72411671,6.42732777 8.00033072,6.42732777 8.78896238,7.21299181 L8.80288178,7.19908468 C9.06504229,7.45832447 9.48724058,7.45832447 9.74940109,7.19908468 L10.2133811,6.73551369 C10.4728497,6.47358432 10.4728497,6.05175826 10.2133811,5.78982889 C9.45851017,5.03541471 8.43456002,4.61157169 7.36686351,4.61157169 C6.29916701,4.61157169 5.27521686,5.03541471 4.52034589,5.78982889 L1.1773696,9.12985782 C-0.394718677,10.7037604 -0.39212204,13.2529662 1.18316935,14.8236684 C2.75846074,16.3943707 5.30991608,16.3917763 6.88200436,14.8178738 L8.9954335,12.706308 C8.16005555,12.7640842 7.32272483,12.625975 6.55025862,12.3030012 L6.55025862,12.3030012 Z M14.8207031,1.1772976 C13.2482119,-0.392432532 10.700159,-0.392432532 9.12766782,1.1772976 L7.01423867,3.29813485 C7.84166418,3.24662863 8.6698003,3.38704173 9.43389465,3.70839517 L10.5358473,2.60741408 C11.322532,1.81694252 12.6016353,1.81331044 13.3928044,2.59930161 C14.1839736,3.38529278 14.1876089,4.66326834 13.4009241,5.45373992 L10.0625876,8.79376886 C9.27395596,9.57943289 7.99774196,9.57943289 7.2091103,8.79376886 C6.94747173,8.53326393 6.52422955,8.53326393 6.26259099,8.79376886 L5.79861093,9.25733984 C5.53787613,9.51874774 5.53787613,9.94161676 5.79861093,10.2030247 L5.78237163,10.2169318 C7.3548628,11.7866619 9.90291572,11.7866619 11.4754069,10.2169318 L14.8207031,6.87690284 C15.575783,6.12269741 16,5.09965002 16,4.03289486 C16,2.96613969 15.575783,1.94309231 14.8207031,1.18888687 L14.8207031,1.1772976 Z" id="Shape"></path>
                </g>
            </g>
        </g>
    </g>
</svg>