<?xml version="1.0" encoding="UTF-8" standalone="no"?>
<svg width="16px" height="4px" viewBox="0 0 16 4" version="1.1" xmlns="http://www.w3.org/2000/svg" xmlns:xlink="http://www.w3.org/1999/xlink">
    <!-- Generator: Sketch 40.1 (33804) - http://www.bohemiancoding.com/sketch -->
    <title>Shape</title>
    <desc>Created with Sketch.</desc>
    <defs></defs>
    <g id="Issuer:-Pathways" stroke="none" stroke-width="1" fill="none" fill-rule="evenodd" fill-opacity="0.7">
        <g id="HD---Pathway-Detail---Edit-Grandchild-2" transform="translate(-1197.000000, -1173.000000)" fill="#000000">
            <g id="content" transform="translate(208.000000, 543.000000)">
                <g id="element-3" transform="translate(0.000000, 604.000000)">
                    <g id="more-icon" transform="translate(983.000000, 14.000000)">
                        <path d="M8,12 C6.9,12 6,12.9 6,14 C6,15.1 6.9,16 8,16 C9.1,16 10,15.1 10,14 C10,12.9 9.1,12 8,12 L8,12 Z M20,12 C18.9,12 18,12.9 18,14 C18,15.1 18.9,16 20,16 C21.1,16 22,15.1 22,14 C22,12.9 21.1,12 20,12 L20,12 Z M14,12 C12.9,12 12,12.9 12,14 C12,15.1 12.9,16 14,16 C15.1,16 16,15.1 16,14 C16,12.9 15.1,12 14,12 L14,12 Z" id="Shape"></path>
                    </g>
                </g>
            </g>
        </g>
    </g>
</svg>