<?xml version="1.0" encoding="UTF-8"?>
<svg width="18px" height="21px" viewBox="0 0 18 21" version="1.1" xmlns="http://www.w3.org/2000/svg" xmlns:xlink="http://www.w3.org/1999/xlink">
    <!-- Generator: Sketch 47.1 (45422) - http://www.bohemiancoding.com/sketch -->
    <title>Icon / Issuer</title>
    <desc>Created with Sketch.</desc>
    <defs></defs>
    <g id="SSO" stroke="none" stroke-width="1" fill="none" fill-rule="evenodd">
        <g id="D---Authorize" transform="translate(-329.000000, -380.000000)" fill="#BCBBC7">
            <g id="Permissions-Table" transform="translate(310.000000, 260.000000)">
                <g id="row-2" transform="translate(0.000000, 102.000000)">
                    <g id="Icon-/-Issuer" transform="translate(16.000000, 16.000000)">
                        <g id="Shape">
                            <path d="M19,2 L5,2 C3.89,2 3,2.9 3,4 L3,18 C3,19.1 3.89,20 5,20 L9,20 L12,23 L15,20 L19,20 C20.1,20 21,19.1 21,18 L21,4 C21,2.9 20.1,2 19,2 L19,2 Z M12,5.3 C13.49,5.3 14.7,6.51 14.7,8 C14.7,9.49 13.49,10.7 12,10.7 C10.51,10.7 9.3,9.49 9.3,8 C9.3,6.51 10.51,5.3 12,5.3 L12,5.3 Z M18,16 L6,16 L6,15.1 C6,13.1 10,12 12,12 C14,12 18,13.1 18,15.1 L18,16 L18,16 Z"></path>
                        </g>
                    </g>
                </g>
            </g>
        </g>
    </g>
</svg>