<?xml version="1.0" encoding="utf-8"?>
<svg version="1.1" xmlns="http://www.w3.org/2000/svg" x="0px" y="0px" viewBox="0 0 12 12" xml:space="preserve">
<path fill="#FFFFFF" d="M9.7,3.7C9.5,3.8,9.2,3.9,8.9,3.9c0,0,0,0,0,0C9.2,3.7,9.4,3.4,9.6,3C9.5,3.1,9,3.3,8.6,3.4
	C8.3,3.1,7.9,2.9,7.4,2.9c-1,0-1.6,0.8-1.6,1.6c0,0.1,0,0.3,0,0.3c-1.3,0-2.5-0.7-3.2-1.6c-0.5,1,0,1.8,0.4,2.1
	c-0.2,0-0.4-0.1-0.6-0.1c0,0.7,0.6,1.4,1.3,1.5c-0.3,0.1-0.6,0-0.8,0c0.2,0.6,0.8,1.1,1.5,1.1C3.4,8.5,2.3,8.5,2.3,8.5
	c0.7,0.4,1.4,0.6,2.3,0.6c3.1,0,4.6-2.7,4.4-4.7C9.3,4.3,9.6,4,9.7,3.7z"/>
</svg>
