<?xml version="1.0" encoding="UTF-8"?>
<svg width="1021px" height="244px" viewBox="0 0 1021 244" version="1.1" xmlns="http://www.w3.org/2000/svg" xmlns:xlink="http://www.w3.org/1999/xlink">
    <!-- Generator: Sketch 50.2 (55047) - http://www.bohemiancoding.com/sketch -->
    <title>Group 23</title>
    <desc>Created with Sketch.</desc>
    <defs>
        <polygon id="path-1" points="0 0.016 243.9848 0.016 243.9848 243.9997 0 243.9997"></polygon>
    </defs>
    <g id="Share-&amp;-Embed" stroke="none" stroke-width="1" fill="none" fill-rule="evenodd">
        <g id="Pinterest-Logo-White">
            <g id="Group-23" transform="translate(0.000000, -0.016000)">
                <path d="M441.0045,87.1207 L472.1265,87.1207 L472.1265,100.9967 L472.7205,100.9967 C480.2535,90.0937 489.9665,84.1477 504.0415,84.1477 C526.2425,84.1477 539.3255,100.0057 539.3255,122.6037 L539.3255,188.6137 L507.0145,188.6137 L507.0145,129.1457 C507.0145,118.4407 501.6625,111.1057 491.1565,111.1057 C480.4525,111.1057 473.3155,120.0267 473.3155,132.5147 L473.3155,188.6137 L441.0045,188.6137 L441.0045,87.1207 Z" id="Fill-2" fill="#FEFEFE"></path>
                <path d="M437.483,59.9673 C437.483,49.2623 428.805,40.5853 418.101,40.5853 C407.397,40.5853 398.719,49.2623 398.719,59.9673 C398.719,70.6713 407.397,79.3483 418.101,79.3483 C428.805,79.3483 437.483,70.6713 437.483,59.9673" id="Fill-4" fill="#FEFEFE"></path>
                <path d="M766.5758,85.6548 C765.6538,85.5718 764.5968,85.5348 763.3598,85.5348 C751.0698,85.5348 742.7448,90.8868 735.6078,102.9788 L735.0138,102.9788 L735.0138,87.1208 L704.0898,87.1208 L704.0898,188.6128 L736.4008,188.6128 L736.4008,143.0208 C736.4008,121.8958 748.0998,112.1068 766.5758,113.8148 L766.5758,85.6548 Z" id="Fill-6" fill="#FEFEFE"></path>
                <path d="M925.1393,124.585 C912.2543,122.207 900.7573,121.216 900.7573,114.08 C900.7573,107.736 906.9033,104.763 914.8313,104.763 C923.7513,104.763 929.8973,107.538 931.0863,116.657 L960.8213,116.657 C959.2353,96.636 943.7733,84.147 915.0313,84.147 C891.0443,84.147 871.2213,95.248 871.2213,116.657 C871.2213,140.443 890.0533,145.201 907.6963,148.175 C921.1753,150.554 933.4653,151.545 933.4653,160.663 C933.4653,167.205 927.3203,170.773 917.6073,170.773 C907.8623,170.773 901.4173,166.65 899.4413,158.285 L868.6523,158.285 C870.9183,179.149 889.2323,191.785 917.8053,191.785 C944.3683,191.785 963.9923,180.288 963.9923,158.087 C963.9923,132.118 942.9803,127.559 925.1393,124.585" id="Fill-8" fill="#FEFEFE"></path>
                <path d="M816.6989,107.1412 C827.2049,107.1412 834.7369,114.8722 835.9269,126.9652 L795.8849,126.9652 C798.0649,114.8722 804.4089,107.1412 816.6989,107.1412 M818.4829,168.3932 C805.2009,168.3932 797.6689,159.8702 795.6859,146.1922 L868.6349,146.1922 C868.8329,125.5772 862.8869,107.9342 850.7939,96.8342 C842.0719,88.9052 830.5749,84.1472 816.1029,84.1472 C785.1799,84.1472 763.9699,107.3392 763.9699,137.6692 C763.9699,168.3932 784.5859,191.5872 818.0859,191.5872 C830.9699,191.5872 841.2789,188.2172 849.8029,182.2702 C858.7229,176.1252 864.6699,167.4032 866.8499,158.2852 L835.3319,158.2852 C832.5559,164.6282 827.0069,168.3932 818.4829,168.3932" id="Fill-10" fill="#FEFEFE"></path>
                <path d="M1020.899,164.6807 C1019.402,164.7397 1017.392,164.8267 1015.545,164.8267 C1008.606,164.8267 1004.246,162.8437 1004.246,154.9147 L1004.246,107.3397 L1020.899,107.3397 L1020.899,87.1207 L1004.246,87.1207 L1004.246,55.0077 L972.727,55.0077 L972.727,87.1207 L962.81,87.1207 L962.81,107.3397 L972.727,107.3397 L972.727,161.8527 C972.727,183.6587 986.207,189.8027 1005.039,189.8027 C1012.224,189.8027 1017.655,189.2647 1020.899,188.6317 L1020.899,164.6807 Z" id="Fill-12" fill="#FEFEFE"></path>
                <polygon id="Fill-1" fill="#FEFEFE" points="401.945 188.614 434.257 188.614 434.257 87.121 401.945 87.121"></polygon>
                <path d="M597.028,164.7266 C595.739,164.7766 594.251,164.8266 592.861,164.8266 C585.924,164.8266 581.562,162.8436 581.562,154.9146 L581.562,107.3396 L597.028,107.3396 L597.028,87.1206 L581.562,87.1206 L581.562,55.0076 L550.044,55.0076 L550.044,87.1206 L539.534,87.1206 L539.534,107.3396 L550.044,107.3396 L550.044,161.8526 C550.044,183.6586 563.523,189.8026 582.355,189.8026 C588.727,189.8026 593.716,189.3786 597.028,188.8416 L597.028,164.7266 Z" id="Fill-14" fill="#FEFEFE"></path>
                <path d="M667.4078,126.9649 C666.2188,114.8729 658.6848,107.1409 648.1788,107.1409 C635.8888,107.1409 629.5458,114.8729 627.3648,126.9649 L667.4078,126.9649 Z M595.4508,137.6689 C595.4508,107.3399 616.6608,84.1479 647.5848,84.1479 C662.0548,84.1479 673.5528,88.9049 682.2748,96.8339 C694.3668,107.9349 700.3128,125.5769 700.1148,146.1929 L627.1678,146.1929 C629.1488,159.8699 636.6818,168.3939 649.9638,168.3939 C658.4868,168.3939 664.0378,164.6279 666.8118,158.2849 L698.3308,158.2849 C696.1498,167.4029 690.2038,176.1249 681.2828,182.2709 C672.7598,188.2169 662.4518,191.5869 649.5668,191.5869 C616.0658,191.5869 595.4508,168.3939 595.4508,137.6689 Z" id="Fill-16" fill="#FEFEFE"></path>
                <path d="M345.8321,113.4854 C358.5191,113.4854 365.6551,105.9524 365.6551,94.6524 C365.6551,83.3544 358.3201,76.4164 345.8321,76.4164 L321.0521,76.4164 L321.0521,113.4854 L345.8321,113.4854 Z M288.3401,46.8804 L344.4501,46.8804 C361.6951,46.8804 374.3821,51.6374 383.1041,59.9634 C392.2231,68.4864 397.3771,80.5794 397.3771,94.8514 C397.3771,122.0084 378.5451,141.2374 349.4051,141.2374 L321.0521,141.2374 L321.0521,188.6134 L288.3401,188.6134 L288.3401,46.8804 Z" id="Fill-18" fill="#FEFEFE"></path>
                <g id="Group-22">
                    <mask id="mask-2" fill="white">
                        <use xlink:href="#path-1"></use>
                    </mask>
                    <g id="Clip-21"></g>
                    <path d="M121.9918,0.0157 C54.6178,0.0157 -0.0002,54.6337 -0.0002,122.0077 C-0.0002,173.6897 32.1548,217.8707 77.5348,235.6457 C76.4688,225.9937 75.5048,211.1497 77.9578,200.6127 C80.1748,191.0917 92.2628,139.9747 92.2628,139.9747 C92.2628,139.9747 88.6138,132.6667 88.6138,121.8627 C88.6138,104.8997 98.4458,92.2357 110.6878,92.2357 C121.0958,92.2357 126.1228,100.0497 126.1228,109.4197 C126.1228,119.8867 119.4588,135.5357 116.0198,150.0377 C113.1458,162.1797 122.1088,172.0817 134.0848,172.0817 C155.7668,172.0817 172.4338,149.2197 172.4338,116.2187 C172.4338,87.0097 151.4458,66.5877 121.4768,66.5877 C86.7658,66.5877 66.3918,92.6227 66.3918,119.5287 C66.3918,130.0137 70.4308,141.2567 75.4708,147.3687 C76.4678,148.5767 76.6138,149.6347 76.3168,150.8677 C75.3908,154.7207 73.3328,163.0067 72.9288,164.7027 C72.3968,166.9357 71.1608,167.4097 68.8488,166.3337 C53.6128,159.2417 44.0868,136.9657 44.0868,119.0737 C44.0868,80.5917 72.0468,45.2507 124.6918,45.2507 C167.0108,45.2507 199.8978,75.4067 199.8978,115.7077 C199.8978,157.7507 173.3888,191.5867 136.5948,191.5867 C124.2328,191.5867 112.6118,185.1647 108.6338,177.5787 C108.6338,177.5787 102.5168,200.8707 101.0338,206.5787 C98.2798,217.1747 90.8448,230.4567 85.8718,238.5597 C97.2858,242.0937 109.4158,243.9997 121.9918,243.9997 C189.3668,243.9997 243.9848,189.3817 243.9848,122.0077 C243.9848,54.6337 189.3668,0.0157 121.9918,0.0157" id="Fill-20" fill="#FEFEFE" mask="url(#mask-2)"></path>
                </g>
            </g>
        </g>
    </g>
</svg>