<?xml version="1.0" encoding="utf-8"?>
<!-- Generator: Adobe Illustrator 22.0.1, SVG Export Plug-In . SVG Version: 6.00 Build 0)  -->
<svg version="1.1" id="Layer_1" xmlns="http://www.w3.org/2000/svg" xmlns:xlink="http://www.w3.org/1999/xlink" x="0px" y="0px"
	 viewBox="0 0 512 512" style="enable-background:new 0 0 512 512;" xml:space="preserve">
<style type="text/css">
	.st0{fill:#FFFFFF;}
</style>
<g id="Page-1">
	<g id="social-portfolium" transform="translate(-103.000000, -76.000000)">
		<path id="Rectangle-1" class="st0" d="M231.3,173.8c-16.5,14.7-25.3,36.9-25.3,58.8c0.1,118.1-0.1,236.3,0.1,354.4
			c22.2,0,44.3,0,66.5,0c0.1-57.1,0-114.2,0-171.2c35.1,0,70.1,0,105.2,0c23.7-0.7,47.4-6.1,68.4-17.4
			c25.6-13.7,46.2-36.7,56.4-63.9c9.2-23.4,10.8-49.3,7.5-74c-4.6-30.3-19.9-59.4-44-78.6c-25.4-21-58.8-30.5-91.5-30.7
			c-25.9,0-51.9,0-77.8,0C273.4,151.5,248.9,157.7,231.3,173.8z M272.7,210.9c32.4,0,64.7-0.1,97.1,0c19.2,0.2,39.1,5.7,53.6,18.8
			c14.9,13.2,22.2,33.6,21.6,53.2c0.9,19.2-5.9,39.2-20.1,52.6c-15.4,14.8-37.4,19.7-58.2,20c-31.3,0-62.6,0.1-94,0
			C272.6,307.2,272.6,259.1,272.7,210.9z"/>
	</g>
</g>
</svg>
