<?xml version="1.0" encoding="UTF-8"?>
<!DOCTYPE svg PUBLIC "-//W3C//DTD SVG 1.1//EN" "http://www.w3.org/Graphics/SVG/1.1/DTD/svg11.dtd">
<!-- Creator: CorelDRAW -->
<svg xmlns="http://www.w3.org/2000/svg" xml:space="preserve" width="64px" height="64px" style="shape-rendering:geometricPrecision; text-rendering:geometricPrecision; image-rendering:optimizeQuality; fill-rule:evenodd; clip-rule:evenodd"
viewBox="0 0 640 640"
 xmlns:xlink="http://www.w3.org/1999/xlink">
 <defs>
  <style type="text/css">
   <![CDATA[
    .fil0 {fill:#93AB23}
   ]]>
  </style>
 </defs>
 <g id="Layer_x0020_1">
  <metadata id="CorelCorpID_0Corel-Layer"/>
  <path class="fil0" d="M46.2171 73.1348l0 0c-61.6071,61.5952 -61.6189,162.356 -0.0118112,223.952l232.125 232.125c25.3822,1.42915 39.154,-9.21271 36.7445,-36.7445l-230.235 -230.235c-41.3863,-41.3863 -41.3863,-109.076 0,-150.462l0 0c41.3745,-41.3745 109.088,-41.3863 150.474,-0.0118112 110.777,110.789 221.578,221.601 332.354,332.366 26.2208,26.209 27.6972,71.3158 1.45277,97.5603l0 0c-26.2326,26.2326 -71.1387,24.5909 -97.3713,-1.64175 -84.0955,-84.0955 -167.541,-167.553 -251.637,-251.637 -11.6458,-11.6458 -12.2364,-31.2878 -0.590558,-42.9454l0 0c11.634,-11.6458 31.2996,-11.0434 42.9454,0.590558l149.506 149.506c27.083,2.13782 38.717,-11.1379 37.406,-37.406l-149.506 -149.506c-32.2327,-32.2327 -84.9459,-32.2327 -117.155,-0.0118112l0 0c-32.2445,32.2327 -32.2091,84.9814 -0.0118112,117.179l102.415 102.415 48.2722 48.2841 100.005 100.005c46.7604,46.7604 126.214,49.6896 172.975,2.91736 46.784,-46.784 43.8667,-126.214 -2.90555,-172.986l-148.289 -148.277 0 0.0118112 -185.034 -185.046c-61.5834,-61.6071 -162.356,-61.5834 -223.928,0z"/>
 </g>
</svg>
