<?xml version="1.0" encoding="UTF-8"?>
<svg width="61px" height="61px" viewBox="0 0 61 61" version="1.1" xmlns="http://www.w3.org/2000/svg" xmlns:xlink="http://www.w3.org/1999/xlink">
    <!-- Generator: Sketch 46.2 (44496) - http://www.bohemiancoding.com/sketch -->
    <title>Icon</title>
    <desc>Created with Sketch.</desc>
    <defs></defs>
    <g id="Symbols" stroke="none" stroke-width="1" fill="none" fill-rule="evenodd">
        <g id="Cards-/-Square-/-Tags_Default" transform="translate(-50.000000, -33.000000)" fill-rule="nonzero">
            <g id="Group">
                <g transform="translate(32.000000, 16.000000)">
                    <g id="Icon">
                        <path d="M57.0614062,71.5254185 L69.7889613,58.8125206 L70.4960477,59.904032 C71.3959758,61.2523697 71.0745729,63.1143598 69.6604001,64.0132515 L49.6048587,77.4966281 C48.2549665,78.3955198 46.3908297,78.0744871 45.4909015,76.6619429 L21.4499641,40.9630983 C21.2571223,40.6420655 21.1285612,40.3210328 21,40 L52.6260461,71.589625 C53.8473771,72.745343 55.8400751,72.745343 57.0614062,71.5254185 Z" id="Shape" fill="#78768D"></path>
                        <path d="M41.1893349,17 L23.9766327,17 C22.2941881,17 21,18.3605279 21,19.980204 L21,37.2135573 C21,37.9910018 21.323547,38.7684463 21.9059317,39.3515297 L52.6428999,70.1253749 C53.8076693,71.2915417 55.7489515,71.2915417 56.9137208,70.1253749 L74.126423,52.8920216 C75.2911923,51.7258548 75.2911923,49.7822436 74.126423,48.6160768 L43.3247454,17.8422316 C42.8070701,17.2591482 42.0305572,17 41.1893349,17 Z M27.1473936,26.6532693 C26.8238466,24.580084 28.5710006,22.8308338 30.6417016,23.154769 C31.9358898,23.3491302 32.9712403,24.3857229 33.1653685,25.6814637 C33.4889155,27.7546491 31.7417615,29.5038992 29.6710605,29.179964 C28.3768724,29.0503899 27.3415219,27.9490102 27.1473936,26.6532693 Z" id="Shape" fill="#A09EAF"></path>
                    </g>
                </g>
            </g>
        </g>
    </g>
</svg>