<?xml version="1.0" encoding="UTF-8"?>
<svg width="60px" height="60px" viewBox="0 0 60 60" version="1.1" xmlns="http://www.w3.org/2000/svg" xmlns:xlink="http://www.w3.org/1999/xlink">
    <!-- Generator: Sketch 46.2 (44496) - http://www.bohemiancoding.com/sketch -->
    <title>Shape</title>
    <desc>Created with Sketch.</desc>
    <defs></defs>
    <g id="Symbols" stroke="none" stroke-width="1" fill="none" fill-rule="evenodd">
        <g id="Cards-/-Square-/-Evidence_Default" transform="translate(-56.000000, -34.000000)" fill="#A09EAF">
            <g id="Icon">
                <g transform="translate(32.000000, 16.000000)">
                    <g id="Group" transform="translate(24.000000, 18.000000)">
                        <path d="M54,52.77 L54,18 L36,0 L12,0 C8.7,0 6.03,2.7 6.03,6 L6,54 C6,57.3 8.67,60 11.97,60 L48,60 C49.35,60 50.55,59.55 51.57,58.8 L38.28,45.51 C35.88,47.07 33.06,48 30,48 C21.72,48 15,41.28 15,33 C15,24.72 21.72,18 30,18 C38.28,18 45,24.72 45,33 C45,36.06 44.07,38.88 42.51,41.25 L54,52.77 L54,52.77 Z M21,33 C21,37.98 25.02,42 30,42 C34.98,42 39,37.98 39,33 C39,28.02 34.98,24 30,24 C25.02,24 21,28.02 21,33 L21,33 Z" id="Shape"></path>
                    </g>
                </g>
            </g>
        </g>
    </g>
</svg>