<?xml version="1.0" encoding="UTF-8"?>
<svg width="61px" height="61px" viewBox="0 0 61 61" version="1.1" xmlns="http://www.w3.org/2000/svg" xmlns:xlink="http://www.w3.org/1999/xlink">
    <!-- Generator: Sketch 46.2 (44496) - http://www.bohemiancoding.com/sketch -->
    <title>Icon</title>
    <desc>Created with Sketch.</desc>
    <defs></defs>
    <g id="Symbols" stroke="none" stroke-width="1" fill="none" fill-rule="evenodd">
        <g id="Cards-/-Square-/-Alignment_Default" transform="translate(-49.000000, -34.000000)" fill-rule="nonzero">
            <g id="Icon">
                <g transform="translate(32.000000, 16.000000)">
                    <g id="Group" fill="#A09EAF">
                        <path d="M76.3201387,29.4737065 L66.5571871,19.7109516 C64.4463903,17.5999581 61.0240935,17.6003516 58.9136903,19.7109516 L43.8346871,34.7897581 C41.7240871,36.9007516 41.7238903,40.3228516 43.8344903,42.4338452 L53.5974419,52.1966 C55.7082387,54.3073968 59.1305355,54.3072 61.2411355,52.1962065 L76.3201387,37.1174 C78.4305419,35.0069968 78.4307387,31.5845032 76.3201387,29.4737065 Z M60.2096452,46.025171 C58.9721323,47.2624871 56.9660194,47.2626839 55.7287032,46.0253677 L50.0057226,40.3023871 C48.7684065,39.065071 48.7686032,37.0589581 50.0059194,35.8214452 L59.9451806,25.8821839 C61.1823,24.6450645 63.1884129,24.6448677 64.4259258,25.8821839 L70.1489065,31.6053613 C71.3862226,32.8424806 71.3860258,34.8485935 70.1489065,36.0859097 L60.2096452,46.025171 Z" id="Shape"></path>
                        <path d="M51.1966,54.5972452 L41.4338452,44.8344903 C39.3230484,42.7236935 35.9007516,42.7238903 33.7901516,44.8344903 L18.7111484,59.9136903 C16.6005484,62.0242903 16.6003516,65.4465871 18.7111484,67.5571871 L28.4741,77.3201387 C30.5847,79.4309355 34.0071935,79.4305419 36.1175968,77.3201387 L51.1967968,62.2407419 C53.3070032,60.1303387 53.3073968,56.7080419 51.1966,54.5972452 Z M35.0859097,71.1487097 C33.8485935,72.3860258 31.8426774,72.3864194 30.6051645,71.1489065 L24.8821839,65.4259258 C23.644671,64.1886097 23.6448677,62.1824968 24.8821839,60.9451806 L34.8216419,51.0057226 C36.0587613,49.7686032 38.0648742,49.7684065 39.3023871,51.0057226 L45.0253677,56.7287032 C46.2626839,57.9662161 46.2624871,59.972329 45.0253677,61.2094484 L35.0859097,71.1487097 Z" id="Shape"></path>
                    </g>
                    <path d="M58.8770336,37.5913284 L58.40901,37.1231115 C56.9117215,35.6256295 54.4752915,35.6256295 52.9778095,37.1231115 L36.1229664,53.9779545 C34.6256779,55.4752431 34.6256779,57.9116731 36.1229664,59.4089617 L36.59099,59.8771786 C38.0882785,61.3742738 40.5247085,61.3742738 42.0221905,59.8771786 L58.8770336,43.0221422 C60.3743221,41.525047 60.3743221,39.0884236 58.8770336,37.5913284 Z" id="Shape" fill="#A09EAF"></path>
                    <path d="M41.0734427,59.2111558 C40.0217849,60.262817 38.3164789,60.2630136 37.2648211,59.2113524 L36.7887434,58.7352732 C35.7370855,57.683612 35.7370855,55.9783006 36.7887434,54.926836 L53.926754,37.7887705 C54.9784118,36.7369127 56.6835211,36.7371093 57.7353756,37.7891638 L58.2112566,38.2650463 C59.2627178,39.3167075 59.2631111,41.0218223 58.2112566,42.0732869 L41.0734427,59.2111558 Z" id="Shape" fill="#E1E0E5"></path>
                </g>
            </g>
        </g>
    </g>
</svg>