<?xml version="1.0" encoding="UTF-8"?>
<svg width="24px" height="24px" viewBox="0 0 24 24" version="1.1" xmlns="http://www.w3.org/2000/svg" xmlns:xlink="http://www.w3.org/1999/xlink">
    <!-- Generator: Sketch 47 (45396) - http://www.bohemiancoding.com/sketch -->
    <title>Shape</title>
    <desc>Created with Sketch.</desc>
    <defs>
        <rect id="path-1" x="0" y="0" width="960" height="274" rx="5"></rect>
    </defs>
    <g id="Issuer:-Badge-Class" stroke="none" stroke-width="1" fill="none" fill-rule="evenodd">
        <g id="D---New-Badge-Class---Default" transform="translate(-60.000000, -1111.000000)">
            <g id="Add-Optional-Details" transform="translate(32.000000, 1091.000000)">
                <g id="bg" transform="translate(480.000000, 137.000000) scale(1, -1) translate(-480.000000, -137.000000) ">
                    <use fill="#F7F7F7" fill-rule="evenodd" xlink:href="#path-1"></use>
                    <rect stroke="#E1E0E5" stroke-width="1" x="0.5" y="0.5" width="959" height="273" rx="5"></rect>
                </g>
                <g id="heading" transform="translate(24.000000, 16.000000)" fill="#93AB23">
                    <g id="ic_add_box">
                        <g id="Group" transform="translate(4.000000, 4.000000)">
                            <path d="M21.3333333,0 L2.66666667,0 C1.18666667,0 0,1.2 0,2.66666667 L0,21.3333333 C0,22.8 1.18666667,24 2.66666667,24 L21.3333333,24 C22.8,24 24,22.8 24,21.3333333 L24,2.66666667 C24,1.2 22.8,0 21.3333333,0 L21.3333333,0 Z M18.6666667,13.3333333 L13.3333333,13.3333333 L13.3333333,18.6666667 L10.6666667,18.6666667 L10.6666667,13.3333333 L5.33333333,13.3333333 L5.33333333,10.6666667 L10.6666667,10.6666667 L10.6666667,5.33333333 L13.3333333,5.33333333 L13.3333333,10.6666667 L18.6666667,10.6666667 L18.6666667,13.3333333 L18.6666667,13.3333333 Z" id="Shape"></path>
                        </g>
                    </g>
                </g>
            </g>
        </g>
    </g>
</svg>