<?xml version="1.0" encoding="UTF-8" standalone="no"?>
<svg width="15px" height="15px" viewBox="0 0 15 15" version="1.1" xmlns="http://www.w3.org/2000/svg" xmlns:xlink="http://www.w3.org/1999/xlink">
    <!-- Generator: Sketch 40.1 (33804) - http://www.bohemiancoding.com/sketch -->
    <title>help</title>
    <desc>Created with Sketch.</desc>
    <defs></defs>
    <g id="Issuer:-Pathways" stroke="none" stroke-width="1" fill="none" fill-rule="evenodd">
        <g id="HD---Pathway-Detail---Tooltip" transform="translate(-520.000000, -554.000000)" fill="#FFB500">
            <g id="content" transform="translate(208.000000, 543.000000)">
                <g id="header">
                    <path d="M322.595,16.723 C322.595,18.289 321.511,18.928 320.168,19.199 L320.033,19.951 L318.775,19.951 L318.492,17.955 L318.554,17.894 C320.107,17.832 320.711,17.426 320.711,16.771 L320.711,16.748 C320.711,16.193 320.291,15.873 319.576,15.873 C318.886,15.873 318.295,16.156 317.73,16.723 L316.595,15.478 C317.308,14.691 318.271,14.148 319.613,14.148 C321.386,14.148 322.595,15.06 322.595,16.699 L322.595,16.723 L322.595,16.723 Z M319.396,23.564 C318.675,23.564 318.09,22.978 318.09,22.26 C318.09,21.541 318.675,20.937 319.396,20.937 C320.117,20.937 320.718,21.541 320.718,22.26 C320.718,22.978 320.117,23.564 319.396,23.564 L319.396,23.564 Z M319.5,11 C315.357,11 312,14.357 312,18.5 C312,22.642 315.357,26 319.5,26 C323.642,26 327,22.642 327,18.5 C327,14.357 323.642,11 319.5,11 L319.5,11 Z" id="help"></path>
                </g>
            </g>
        </g>
    </g>
</svg>